<svg width="614" height="475" viewBox="0 0 614 475" fill="none" xmlns="http://www.w3.org/2000/svg">
<g clip-path="url(#clip0_30_3838)">
<g opacity="0.7">
<g opacity="0.7">
<g opacity="0.7">
<g opacity="0.7">
<path opacity="0.7" d="M108.227 431.445L159.315 401.962L211.349 396.67L252.598 420.483L289.305 418.971L320.904 400.639" stroke="white" stroke-width="0.5349" stroke-miterlimit="10"/>
</g>
<g opacity="0.7">
<path opacity="0.7" d="M209.835 407.443L249.948 430.5L292.9 428.799L347.961 397.048" stroke="white" stroke-width="0.5349" stroke-miterlimit="10"/>
</g>
<path opacity="0.7" d="M323.364 401.773C322.228 402.529 320.336 402.529 319.201 401.773C318.066 401.017 318.066 400.072 319.201 399.316C320.336 398.56 322.228 398.56 323.364 399.316C324.499 400.072 324.499 401.017 323.364 401.773Z" fill="white"/>
<path opacity="0.7" d="M350.232 398.182C349.097 398.938 347.205 398.938 346.069 398.182C344.934 397.426 344.934 396.481 346.069 395.725C347.205 394.969 349.097 394.969 350.232 395.725C351.367 396.481 351.367 397.426 350.232 398.182Z" fill="white"/>
<path opacity="0.7" d="M295.17 429.933C294.035 430.689 292.143 430.689 291.008 429.933C289.872 429.177 289.872 428.232 291.008 427.476C292.143 426.72 294.035 426.72 295.17 427.476C296.306 428.232 296.306 429.366 295.17 429.933Z" fill="white"/>
<path opacity="0.7" d="M291.386 420.105C290.251 420.861 288.359 420.861 287.224 420.105C286.088 419.349 286.088 418.404 287.224 417.648C288.359 416.892 290.251 416.892 291.386 417.648C292.522 418.404 292.522 419.538 291.386 420.105Z" fill="white"/>
<path opacity="0.7" d="M213.43 397.993C212.295 398.749 210.403 398.749 209.267 397.993C208.132 397.237 208.132 396.292 209.267 395.536C210.403 394.78 212.295 394.78 213.43 395.536C214.565 396.292 214.565 397.426 213.43 397.993Z" fill="white"/>
<path opacity="0.7" d="M211.916 408.577C210.781 409.333 208.889 409.333 207.754 408.577C206.618 407.821 206.618 406.876 207.754 406.12C208.889 405.364 210.781 405.364 211.916 406.12C213.052 406.876 213.052 408.01 211.916 408.577Z" fill="white"/>
<path opacity="0.7" d="M110.308 432.578C109.173 433.334 107.281 433.334 106.146 432.578C105.01 431.823 105.01 430.878 106.146 430.122C107.281 429.366 109.173 429.366 110.308 430.122C111.633 430.878 111.633 432.012 110.308 432.578Z" fill="white"/>
</g>
<g opacity="0.7">
<g opacity="0.7">
<path opacity="0.7" d="M331.31 418.643L291.197 441.889L248.245 439.999L193.184 408.437" stroke="white" stroke-width="0.5349" stroke-miterlimit="10"/>
</g>
<path opacity="0.7" d="M190.913 409.382C192.049 410.138 193.941 410.138 195.076 409.382C196.211 408.626 196.211 407.681 195.076 406.925C193.941 406.169 192.049 406.169 190.913 406.925C189.778 407.681 189.778 408.815 190.913 409.382Z" fill="white"/>
<path opacity="0.7" d="M245.975 441.133C247.11 441.889 249.002 441.889 250.137 441.133C251.273 440.377 251.273 439.432 250.137 438.676C249.002 437.92 247.11 437.92 245.975 438.676C244.839 439.432 244.839 440.566 245.975 441.133Z" fill="white"/>
<path opacity="0.7" d="M329.229 419.966C330.365 420.722 332.257 420.722 333.392 419.966C334.527 419.21 334.527 418.265 333.392 417.509C332.257 416.753 330.365 416.753 329.229 417.509C328.094 418.076 328.094 419.21 329.229 419.966Z" fill="white"/>
</g>
<g opacity="0.7">
<g opacity="0.7">
<path opacity="0.7" d="M249.948 401.206L199.05 371.723L146.827 366.432L105.578 390.245L69.0597 388.733L37.2717 370.401" stroke="white" stroke-width="0.5349" stroke-miterlimit="10"/>
</g>
<g opacity="0.7">
<path opacity="0.7" d="M148.53 377.204L108.416 400.261L65.4646 398.56L10.4033 366.81" stroke="white" stroke-width="0.5349" stroke-miterlimit="10"/>
</g>
<path opacity="0.7" d="M34.8119 371.534C35.9472 372.29 37.8393 372.29 38.9746 371.534C40.1099 370.778 40.1099 369.834 38.9746 369.078C37.8393 368.322 35.9472 368.322 34.8119 369.078C33.6766 369.645 33.6766 370.778 34.8119 371.534Z" fill="white"/>
<path opacity="0.7" d="M7.9435 367.944C9.07879 368.7 10.9709 368.7 12.1062 367.944C13.2415 367.188 13.2415 366.243 12.1062 365.487C10.9709 364.731 9.07879 364.731 7.9435 365.487C6.80822 366.243 6.80822 367.188 7.9435 367.944Z" fill="white"/>
<path opacity="0.7" d="M63.194 399.694C64.3293 400.45 66.2214 400.45 67.3567 399.694C68.492 398.938 68.492 397.993 67.3567 397.237C66.2214 396.481 64.3293 396.481 63.194 397.237C62.0587 397.993 62.0587 398.938 63.194 399.694Z" fill="white"/>
<path opacity="0.7" d="M66.9784 389.867C68.1137 390.623 70.0058 390.623 71.1411 389.867C72.2764 389.111 72.2764 388.166 71.1411 387.41C70.0058 386.654 68.1137 386.654 66.9784 387.41C65.8431 388.166 65.8431 389.3 66.9784 389.867Z" fill="white"/>
<path opacity="0.7" d="M144.934 367.755C146.07 368.511 147.962 368.511 149.097 367.755C150.232 366.999 150.232 366.054 149.097 365.298C147.962 364.542 146.07 364.542 144.934 365.298C143.799 366.054 143.799 367.188 144.934 367.755Z" fill="white"/>
<path opacity="0.7" d="M146.448 378.338C147.583 379.094 149.476 379.094 150.611 378.338C151.746 377.582 151.746 376.637 150.611 375.881C149.476 375.125 147.583 375.125 146.448 375.881C145.124 376.637 145.124 377.771 146.448 378.338Z" fill="white"/>
<path opacity="0.7" d="M247.867 402.34C249.002 403.096 250.895 403.096 252.03 402.34C253.165 401.584 253.165 400.639 252.03 399.883C250.895 399.127 249.002 399.127 247.867 399.883C246.732 400.639 246.732 401.584 247.867 402.34Z" fill="white"/>
</g>
</g>
</g>
<g opacity="0.7">
<g opacity="0.7">
<g opacity="0.7">
<g opacity="0.7">
<path opacity="0.7" d="M509.361 278.929L469.437 302.175L426.485 300.474L371.424 268.723" stroke="white" stroke-width="0.5349" stroke-miterlimit="10"/>
</g>
<path opacity="0.7" d="M395.832 273.259C396.968 274.015 398.86 274.015 399.995 273.259C401.13 272.503 401.13 271.558 399.995 270.802C398.86 270.046 396.968 270.046 395.832 270.802C394.697 271.558 394.697 272.692 395.832 273.259Z" fill="white"/>
<path opacity="0.7" d="M368.964 269.668C370.1 270.424 371.992 270.424 373.127 269.668C374.262 268.912 374.262 267.967 373.127 267.212C371.992 266.456 370.1 266.456 368.964 267.212C367.829 267.967 367.829 269.101 368.964 269.668Z" fill="white"/>
<path opacity="0.7" d="M424.215 301.419C425.35 302.175 427.242 302.175 428.377 301.419C429.513 300.663 429.513 299.718 428.377 298.962C427.242 298.206 425.35 298.206 424.215 298.962C423.079 299.718 423.079 300.852 424.215 301.419Z" fill="white"/>
<path opacity="0.7" d="M427.999 291.78C429.134 292.536 431.026 292.536 432.162 291.78C433.297 291.024 433.297 290.079 432.162 289.323C431.026 288.567 429.134 288.567 427.999 289.323C426.864 290.079 426.864 291.024 427.999 291.78Z" fill="white"/>
<path opacity="0.7" d="M507.28 280.252C508.415 281.008 510.307 281.008 511.442 280.252C512.578 279.496 512.578 278.551 511.442 277.795C510.307 277.039 508.415 277.039 507.28 277.795C506.144 278.362 506.144 279.496 507.28 280.252Z" fill="white"/>
</g>
<g opacity="0.7">
<g opacity="0.7">
<path opacity="0.7" d="M362.152 347.344L413.051 318.05L465.274 312.569L506.523 336.382" stroke="white" stroke-width="0.5349" stroke-miterlimit="10"/>
</g>
<g opacity="0.7">
<path opacity="0.7" d="M463.571 323.342L503.685 346.588" stroke="white" stroke-width="0.5349" stroke-miterlimit="10"/>
</g>
<path opacity="0.7" d="M467.167 314.081C466.031 314.837 464.139 314.837 463.004 314.081C461.869 313.325 461.869 312.38 463.004 311.624C464.139 310.868 466.031 310.868 467.167 311.624C468.302 312.191 468.302 313.325 467.167 314.081Z" fill="white"/>
<path opacity="0.7" d="M465.653 324.665C464.518 325.421 462.625 325.421 461.49 324.665C460.355 323.909 460.355 322.964 461.49 322.208C462.625 321.452 464.518 321.452 465.653 322.208C466.788 322.964 466.788 323.909 465.653 324.665Z" fill="white"/>
<path opacity="0.7" d="M364.234 348.667C363.099 349.423 361.206 349.423 360.071 348.667C358.936 347.911 358.936 346.966 360.071 346.21C361.206 345.454 363.099 345.454 364.234 346.21C365.369 346.966 365.369 347.911 364.234 348.667Z" fill="white"/>
</g>
<g opacity="0.7">
<g opacity="0.7">
<path opacity="0.7" d="M368.019 376.637L418.917 347.344L471.14 341.863L512.389 365.676" stroke="white" stroke-width="0.5349" stroke-miterlimit="10"/>
</g>
<g opacity="0.7">
<path opacity="0.7" d="M469.626 352.635L509.74 375.881" stroke="white" stroke-width="0.5349" stroke-miterlimit="10"/>
</g>
<path opacity="0.7" d="M473.032 343.186C471.897 343.942 470.005 343.942 468.87 343.186C467.734 342.43 467.734 341.485 468.87 340.729C470.005 339.973 471.897 339.973 473.032 340.729C474.168 341.485 474.168 342.619 473.032 343.186Z" fill="white"/>
<path opacity="0.7" d="M471.708 353.958C470.572 354.714 468.68 354.714 467.545 353.958C466.41 353.202 466.41 352.257 467.545 351.501C468.68 350.745 470.572 350.745 471.708 351.501C472.843 352.068 472.843 353.202 471.708 353.958Z" fill="white"/>
<path opacity="0.7" d="M370.1 377.771C368.964 378.527 367.072 378.527 365.937 377.771C364.802 377.015 364.802 376.07 365.937 375.314C367.072 374.558 368.964 374.558 370.1 375.314C371.235 376.07 371.235 377.204 370.1 377.771Z" fill="white"/>
</g>
</g>
</g>
<g opacity="0.7">
<g opacity="0.7">
<g opacity="0.7">
<g opacity="0.7">
<path opacity="0.7" d="M101.227 208.246L152.125 237.729L204.159 243.021L245.597 219.208L282.115 220.72L313.903 239.052" stroke="white" stroke-width="0.5349" stroke-miterlimit="10"/>
</g>
<g opacity="0.7">
<path opacity="0.7" d="M202.645 232.248L242.759 209.191L285.71 210.892L340.772 242.643" stroke="white" stroke-width="0.5349" stroke-miterlimit="10"/>
</g>
<path opacity="0.7" d="M316.174 237.918C315.039 237.162 313.146 237.162 312.011 237.918C310.876 238.674 310.876 239.619 312.011 240.375C313.146 241.131 315.039 241.131 316.174 240.375C317.309 239.619 317.309 238.674 316.174 237.918Z" fill="white"/>
<path opacity="0.7" d="M343.042 241.509C341.907 240.753 340.015 240.753 338.879 241.509C337.744 242.265 337.744 243.21 338.879 243.966C340.015 244.722 341.907 244.722 343.042 243.966C344.366 243.21 344.366 242.265 343.042 241.509Z" fill="white"/>
<path opacity="0.7" d="M287.981 209.758C286.846 209.002 284.954 209.002 283.818 209.758C282.683 210.514 282.683 211.459 283.818 212.215C284.954 212.971 286.846 212.971 287.981 212.215C289.116 211.459 289.116 210.325 287.981 209.758Z" fill="white"/>
<path opacity="0.7" d="M284.197 219.397C283.062 218.641 281.169 218.641 280.034 219.397C278.899 220.153 278.899 221.098 280.034 221.854C281.169 222.61 283.062 222.61 284.197 221.854C285.332 221.287 285.332 220.153 284.197 219.397Z" fill="white"/>
<path opacity="0.7" d="M206.24 241.698C205.105 240.942 203.213 240.942 202.078 241.698C200.942 242.454 200.942 243.399 202.078 244.155C203.213 244.911 205.105 244.911 206.24 244.155C207.376 243.399 207.376 242.265 206.24 241.698Z" fill="white"/>
<path opacity="0.7" d="M204.727 231.114C203.592 230.358 201.699 230.358 200.564 231.114C199.429 231.87 199.429 232.815 200.564 233.571C201.699 234.327 203.592 234.327 204.727 233.571C205.862 232.815 205.862 231.681 204.727 231.114Z" fill="white"/>
<path opacity="0.7" d="M103.308 207.112C102.173 206.356 100.28 206.356 99.1452 207.112C98.0099 207.868 98.0099 208.813 99.1452 209.569C100.28 210.325 102.173 210.325 103.308 209.569C104.443 208.813 104.443 207.679 103.308 207.112Z" fill="white"/>
</g>
<g opacity="0.7">
<g opacity="0.7">
<path opacity="0.7" d="M425.729 167.046L374.83 196.34L322.607 201.821L281.358 178.008L244.651 179.52L213.052 197.663" stroke="white" stroke-width="0.5349" stroke-miterlimit="10"/>
</g>
<g opacity="0.7">
<path opacity="0.7" d="M324.121 191.048L284.007 167.802L241.056 169.503L186.184 201.254" stroke="white" stroke-width="0.5349" stroke-miterlimit="10"/>
</g>
<path opacity="0.7" d="M210.592 196.718C211.727 195.962 213.62 195.962 214.755 196.718C215.89 197.474 215.89 198.419 214.755 199.175C213.62 199.931 211.727 199.931 210.592 199.175C209.457 198.419 209.457 197.285 210.592 196.718Z" fill="white"/>
<path opacity="0.7" d="M183.724 200.309C184.859 199.553 186.751 199.553 187.887 200.309C189.022 201.065 189.022 202.01 187.887 202.766C186.751 203.522 184.859 203.522 183.724 202.766C182.588 202.01 182.588 200.876 183.724 200.309Z" fill="white"/>
<path opacity="0.7" d="M238.785 168.558C239.92 167.802 241.812 167.802 242.948 168.558C244.083 169.314 244.083 170.259 242.948 171.015C241.812 171.771 239.92 171.771 238.785 171.015C237.65 170.259 237.65 169.125 238.785 168.558Z" fill="white"/>
<path opacity="0.7" d="M242.569 178.197C243.705 177.441 245.597 177.441 246.732 178.197C247.867 178.953 247.867 179.898 246.732 180.654C245.597 181.41 243.705 181.41 242.569 180.654C241.434 179.898 241.434 178.953 242.569 178.197Z" fill="white"/>
<path opacity="0.7" d="M320.715 200.498C321.85 199.742 323.742 199.742 324.877 200.498C326.013 201.254 326.013 202.199 324.877 202.955C323.742 203.711 321.85 203.711 320.715 202.955C319.579 202.199 319.579 201.065 320.715 200.498Z" fill="white"/>
<path opacity="0.7" d="M322.039 189.725C323.175 188.969 325.067 188.969 326.202 189.725C327.337 190.481 327.337 191.426 326.202 192.182C325.067 192.938 323.175 192.938 322.039 192.182C320.904 191.615 320.904 190.481 322.039 189.725Z" fill="white"/>
<path opacity="0.7" d="M423.647 165.912C424.783 165.156 426.675 165.156 427.81 165.912C428.945 166.668 428.945 167.613 427.81 168.369C426.675 169.125 424.783 169.125 423.647 168.369C422.512 167.613 422.512 166.479 423.647 165.912Z" fill="white"/>
</g>
<g opacity="0.7">
<g opacity="0.7">
<path opacity="0.7" d="M242.759 238.485L191.86 267.967L139.826 273.259L98.3881 249.446L61.8698 250.958L30.0818 269.29" stroke="white" stroke-width="0.5349" stroke-miterlimit="10"/>
</g>
<g opacity="0.7">
<path opacity="0.7" d="M141.34 262.487L101.226 239.43L58.2747 241.131L3.21338 272.881" stroke="white" stroke-width="0.5349" stroke-miterlimit="10"/>
</g>
<path opacity="0.7" d="M27.8112 268.156C28.9465 267.401 30.8386 267.401 31.9739 268.156C33.1092 268.912 33.1092 269.857 31.9739 270.613C30.8386 271.369 28.9465 271.369 27.8112 270.613C26.6759 269.857 26.6759 268.912 27.8112 268.156Z" fill="white"/>
<path opacity="0.7" d="M0.942837 271.747C2.07812 271.18 3.78105 271.18 5.10555 271.747C6.24083 272.503 6.24083 273.448 5.10555 274.204C3.97026 274.96 2.07812 274.96 0.942837 274.204C-0.381662 273.448 -0.381662 272.503 0.942837 271.747Z" fill="white"/>
<path opacity="0.7" d="M58.0855 242.832C59.7575 242.832 61.113 242.07 61.113 241.131C61.113 240.191 59.7575 239.43 58.0855 239.43C56.4135 239.43 55.0581 240.191 55.0581 241.131C55.0581 242.07 56.4135 242.832 58.0855 242.832Z" fill="white"/>
<path opacity="0.7" d="M59.7885 249.824C60.9238 249.068 62.8159 249.068 63.9512 249.824C65.0865 250.58 65.0865 251.525 63.9512 252.281C62.8159 253.037 60.9238 253.037 59.7885 252.281C58.6532 251.525 58.6532 250.391 59.7885 249.824Z" fill="white"/>
<path opacity="0.7" d="M137.745 271.936C138.88 271.18 140.772 271.18 141.907 271.936C143.043 272.692 143.043 273.637 141.907 274.393C140.772 275.149 138.88 275.149 137.745 274.393C136.609 273.637 136.609 272.503 137.745 271.936Z" fill="white"/>
<path opacity="0.7" d="M139.258 261.353C140.394 260.597 142.286 260.597 143.421 261.353C144.556 262.109 144.556 263.054 143.421 263.81C142.286 264.566 140.394 264.566 139.258 263.81C138.123 263.054 138.123 261.92 139.258 261.353Z" fill="white"/>
<path opacity="0.7" d="M240.677 237.351C241.812 236.595 243.705 236.595 244.84 237.351C245.975 238.107 245.975 239.052 244.84 239.808C243.705 240.564 241.812 240.564 240.677 239.808C239.542 239.052 239.542 238.107 240.677 237.351Z" fill="white"/>
</g>
</g>
</g>
</g>
<path d="M295.319 120.669C295.319 128.495 293.06 134.582 289.063 138.061C287.847 139.104 280.375 144.322 278.985 145.018C273.772 147.105 273.251 141.887 265.952 137.713C249.618 128.321 236.412 105.364 236.412 86.5805C236.412 79.4498 231.72 78.4063 235.022 74.754C235.891 73.8844 243.536 68.4928 244.579 67.7972C249.966 64.3188 257.612 64.6666 266.126 69.5364C282.113 78.928 295.319 101.712 295.319 120.669Z" fill="url(#paint0_linear_30_3838)"/>
<path d="M288.368 125.365C288.368 144.148 275.162 151.801 258.828 142.409C242.494 133.017 229.288 110.06 229.288 91.2764C229.288 72.493 242.494 64.8405 258.828 74.2322C275.162 83.6239 288.368 106.581 288.368 125.365Z" fill="url(#paint1_linear_30_3838)"/>
<path d="M277.275 140.25C287.498 134.343 287.538 115.258 277.365 97.6236C267.192 79.989 250.659 70.4821 240.437 76.3894C230.214 82.2967 230.174 101.381 240.347 119.016C250.519 136.65 267.053 146.157 277.275 140.25Z" stroke="#4D0063" stroke-width="0.6873" stroke-miterlimit="10"/>
<path d="M266.995 99.6245V93.5373L262.13 90.7546V96.3201L257.264 93.5373V87.9719L252.399 85.1892V90.7546L247.533 87.9719V115.625L252.399 118.408V123.973L257.264 126.756V121.191L262.13 123.973V129.539L266.995 132.321V126.234C269.254 126.582 270.992 125.539 271.513 123.104C272.034 120.843 271.513 117.538 269.949 114.582C271.513 113.538 272.208 110.929 271.513 107.973C270.992 105.016 269.254 101.885 266.995 99.6245ZM252.572 96.3201L264.562 103.277C265.953 103.973 266.995 105.886 266.995 107.451C266.995 109.016 265.953 109.538 264.562 108.842L252.572 101.885V96.3201ZM264.562 119.799L252.572 112.842V107.277L264.562 114.234C265.953 114.929 266.995 116.843 266.995 118.408C266.995 119.973 265.953 120.669 264.562 119.799Z" fill="white"/>
<path d="M261.26 395.984L138.581 325.373C133.02 322.242 133.02 305.546 135.279 299.98L250.313 240.326C256.569 236.673 266.3 236.326 271.86 239.456L397.32 303.459C401.838 310.763 399.405 327.981 392.976 331.634L282.981 395.288C276.378 398.767 266.647 399.115 261.26 395.984Z" fill="url(#paint2_linear_30_3838)"/>
<path d="M261.26 377.723L138.581 307.111C133.02 303.981 133.715 298.415 140.145 294.763L250.139 231.108C256.395 227.456 266.126 227.108 271.686 230.238L394.366 300.85C399.926 303.981 399.231 309.546 392.802 313.198L282.807 376.853C276.378 380.505 266.647 380.853 261.26 377.723Z" fill="url(#paint3_linear_30_3838)"/>
<path d="M261.086 369.548L152.83 307.111C147.269 303.981 147.964 298.415 154.393 294.763L250.487 239.282C256.742 235.63 266.473 235.282 272.034 238.413L380.291 300.85C385.851 303.981 385.156 309.546 378.727 313.198L282.634 368.679C276.204 372.331 266.473 372.679 261.086 369.548Z" fill="url(#paint4_linear_30_3838)"/>
<path opacity="0.1" d="M265.431 344.678C311.976 344.678 349.708 326.301 349.708 303.633C349.708 280.964 311.976 262.588 265.431 262.588C218.886 262.588 181.154 280.964 181.154 303.633C181.154 326.301 218.886 344.678 265.431 344.678Z" fill="url(#paint5_radial_30_3838)"/>
<path opacity="0.1" d="M317.387 325.547C289.758 339.112 244.753 339.112 217.124 325.547C189.495 311.981 189.495 290.241 217.124 276.675C244.753 263.109 289.758 263.109 317.387 276.675C345.016 290.241 345.016 311.981 317.387 325.547Z" fill="url(#paint6_radial_30_3838)"/>
<path d="M206.35 273.718L329.898 274.762V291.98C329.898 301.198 323.817 310.242 311.827 317.198C287.673 331.112 248.576 331.112 224.422 317.198C212.432 310.242 206.35 301.024 206.35 291.98V273.718Z" fill="url(#paint7_linear_30_3838)"/>
<path d="M212.432 271.631H210.347V304.395H212.432V271.631Z" fill="#4D0063"/>
<path d="M219.556 271.631H217.471V309.372H219.556V271.631Z" fill="#4D0063"/>
<path d="M226.507 271.631H224.422V309.372H226.507V271.631Z" fill="#4D0063"/>
<path d="M233.632 271.631H231.546V309.372H233.632V271.631Z" fill="#4D0063"/>
<path d="M240.756 271.631H238.671V309.372H240.756V271.631Z" fill="#4D0063"/>
<path d="M247.88 271.631H245.795V309.372H247.88V271.631Z" fill="#4D0063"/>
<path d="M255.005 271.631H252.919V309.372H255.005V271.631Z" fill="#4D0063"/>
<path d="M262.129 271.631H260.044V309.372H262.129V271.631Z" fill="#4D0063"/>
<path d="M269.254 271.631H267.168V309.372H269.254V271.631Z" fill="#4D0063"/>
<path d="M276.378 271.631H274.293V309.372H276.378V271.631Z" fill="#4D0063"/>
<path d="M283.329 271.631H281.244V309.372H283.329V271.631Z" fill="#4D0063"/>
<path d="M290.453 271.631H288.368V309.372H290.453V271.631Z" fill="#4D0063"/>
<path d="M297.578 271.631H295.493V309.372H297.578V271.631Z" fill="#4D0063"/>
<path d="M304.702 271.631H302.617V309.372H304.702V271.631Z" fill="#4D0063"/>
<path d="M311.826 271.631H309.741V309.372H311.826V271.631Z" fill="#4D0063"/>
<path d="M318.951 271.631H316.866V309.372H318.951V271.631Z" fill="#4D0063"/>
<path d="M326.075 271.631H323.99V303.622H326.075V271.631Z" fill="#4D0063"/>
<path d="M268.211 311.111C302.376 311.111 330.072 295.149 330.072 275.458C330.072 255.767 302.376 239.804 268.211 239.804C234.046 239.804 206.35 255.767 206.35 275.458C206.35 295.149 234.046 311.111 268.211 311.111Z" fill="url(#paint8_linear_30_3838)"/>
<path d="M268.211 304.85C298.057 304.85 322.253 290.912 322.253 273.718C322.253 256.525 298.057 242.587 268.211 242.587C238.365 242.587 214.169 256.525 214.169 273.718C214.169 290.912 238.365 304.85 268.211 304.85Z" stroke="#4D0063" stroke-width="1.1865" stroke-miterlimit="10"/>
<path d="M261.608 254.413L253.788 249.891L246.664 254.065L253.788 258.24L246.664 262.414L239.54 258.24L232.415 262.414L239.54 266.588L232.415 270.762L268.211 291.458L275.336 287.284L282.46 291.458L289.584 287.284L282.46 283.11L289.584 278.936L296.709 283.11L303.833 278.936L296.014 274.414C298.273 271.805 297.925 268.675 295.493 266.24C292.886 263.805 288.368 262.066 283.329 262.066C283.155 259.109 280.375 256.5 276.031 254.935C271.513 253.196 266.126 253.022 261.608 254.413ZM246.664 270.588L264.562 260.327C266.473 259.109 269.775 259.109 271.686 260.327C273.598 261.544 273.598 263.283 271.686 264.501L253.788 274.762L246.664 270.588ZM285.935 272.675L268.037 282.936L260.913 278.762L278.811 268.501C280.722 267.283 284.024 267.283 285.935 268.501C288.021 269.544 288.021 271.457 285.935 272.675Z" fill="white"/>
<path d="M206.35 253.544L329.898 254.587V271.805C329.898 281.023 323.817 290.067 311.827 297.024C287.673 310.937 248.576 310.937 224.422 297.024C212.432 290.067 206.35 280.849 206.35 271.805V253.544Z" fill="url(#paint9_linear_30_3838)"/>
<path d="M212.432 251.283H210.347V304.395H212.432V251.283Z" fill="#4D0063"/>
<path d="M219.556 251.283H217.471V312.347H219.556V251.283Z" fill="#4D0063"/>
<path d="M226.507 251.283H224.422V317.192H226.507V251.283Z" fill="#4D0063"/>
<path d="M233.632 251.283H231.546V320.803H233.632V251.283Z" fill="#4D0063"/>
<path d="M240.756 251.283H238.671V323.314H240.756V251.283Z" fill="#4D0063"/>
<path d="M247.88 251.283H245.795V325.208H247.88V251.283Z" fill="#4D0063"/>
<path d="M255.005 251.283H252.919V326.485H255.005V251.283Z" fill="#4D0063"/>
<path d="M262.129 251.283H260.044V327.634H262.129V251.283Z" fill="#4D0063"/>
<path d="M269.254 251.283H267.168V327.634H269.254V251.283Z" fill="#4D0063"/>
<path d="M276.378 251.283H274.293V327.634H276.378V251.283Z" fill="#4D0063"/>
<path d="M283.329 251.283H281.244V326.418H283.329V251.283Z" fill="#4D0063"/>
<path d="M290.453 251.283H288.368V325.225H290.453V251.283Z" fill="#4D0063"/>
<path d="M297.578 251.283H295.493V323.288H297.578V251.283Z" fill="#4D0063"/>
<path d="M304.702 251.283H302.617V320.904H304.702V251.283Z" fill="#4D0063"/>
<path d="M311.826 251.283H309.741V317.278H311.826V251.283Z" fill="#4D0063"/>
<path d="M318.951 251.283H316.866V312.509H318.951V251.283Z" fill="#4D0063"/>
<path d="M326.075 251.283H323.99V304.463H326.075V251.283Z" fill="#4D0063"/>
<path d="M268.211 290.763C302.376 290.763 330.072 274.8 330.072 255.109C330.072 235.418 302.376 219.455 268.211 219.455C234.046 219.455 206.35 235.418 206.35 255.109C206.35 274.8 234.046 290.763 268.211 290.763Z" fill="url(#paint10_linear_30_3838)"/>
<path d="M268.211 284.675C298.057 284.675 322.253 270.737 322.253 253.544C322.253 236.35 298.057 222.412 268.211 222.412C238.365 222.412 214.169 236.35 214.169 253.544C214.169 270.737 238.365 284.675 268.211 284.675Z" stroke="#4D0063" stroke-width="1.1865" stroke-miterlimit="10"/>
<path d="M261.608 234.065L253.788 229.543L246.664 233.717L253.788 237.891L246.664 242.065L239.54 237.891L232.415 242.065L239.54 246.239L232.415 250.413L268.211 271.11L275.336 266.936L282.46 271.11L289.584 266.936L282.46 262.761L289.584 258.587L296.709 262.761L303.833 258.587L296.014 254.065C298.273 251.457 297.925 248.326 295.493 245.891C292.886 243.456 288.368 241.717 283.329 241.717C283.155 238.76 280.375 236.152 276.031 234.586C271.513 233.021 266.126 232.847 261.608 234.065ZM246.664 250.239L264.562 239.978C266.473 238.76 269.775 238.76 271.686 239.978C273.598 241.195 273.598 242.935 271.686 244.152L253.788 254.413L246.664 250.239ZM285.935 252.326L268.037 262.588L260.913 258.413L278.811 248.152C280.722 246.935 284.024 246.935 285.935 248.152C288.021 249.37 288.021 251.109 285.935 252.326Z" fill="white"/>
<path d="M206.35 233.195L329.898 234.239V251.457C329.898 260.674 323.817 269.718 311.827 276.675C287.673 290.589 248.576 290.589 224.422 276.675C212.432 269.718 206.35 260.5 206.35 251.457V233.195Z" fill="url(#paint11_linear_30_3838)"/>
<path d="M212.432 230.934H210.347V289.023H212.432V230.934Z" fill="#4D0063"/>
<path d="M219.556 230.934H217.471V289.023H219.556V230.934Z" fill="#4D0063"/>
<path d="M226.507 230.934H224.422V289.023H226.507V230.934Z" fill="#4D0063"/>
<path d="M233.632 230.934H231.546V289.023H233.632V230.934Z" fill="#4D0063"/>
<path d="M240.756 230.934H238.671V289.023H240.756V230.934Z" fill="#4D0063"/>
<path d="M247.88 230.934H245.795V289.023H247.88V230.934Z" fill="#4D0063"/>
<path d="M255.005 230.934H252.919V289.023H255.005V230.934Z" fill="#4D0063"/>
<path d="M262.129 230.934H260.044V289.023H262.129V230.934Z" fill="#4D0063"/>
<path d="M269.254 230.934H267.168V289.023H269.254V230.934Z" fill="#4D0063"/>
<path d="M276.378 230.934H274.293V289.023H276.378V230.934Z" fill="#4D0063"/>
<path d="M283.329 230.934H281.244V289.023H283.329V230.934Z" fill="#4D0063"/>
<path d="M290.453 230.934H288.368V289.023H290.453V230.934Z" fill="#4D0063"/>
<path d="M297.578 230.934H295.493V289.023H297.578V230.934Z" fill="#4D0063"/>
<path d="M304.702 230.934H302.617V289.023H304.702V230.934Z" fill="#4D0063"/>
<path d="M311.826 230.934H309.741V289.023H311.826V230.934Z" fill="#4D0063"/>
<path d="M318.951 230.934H316.866V289.023H318.951V230.934Z" fill="#4D0063"/>
<path d="M326.075 230.934H323.99V289.023H326.075V230.934Z" fill="#4D0063"/>
<path d="M268.211 270.414C302.376 270.414 330.072 254.451 330.072 234.76C330.072 215.069 302.376 199.107 268.211 199.107C234.046 199.107 206.35 215.069 206.35 234.76C206.35 254.451 234.046 270.414 268.211 270.414Z" fill="url(#paint12_linear_30_3838)"/>
<path d="M306.266 255.283C285.24 267.457 251.008 267.457 229.982 255.283C208.956 243.109 208.956 223.282 229.982 211.107C251.008 198.933 285.24 198.933 306.266 211.107C327.466 223.282 327.466 243.109 306.266 255.283Z" stroke="#4D0063" stroke-width="1.1865" stroke-miterlimit="10"/>
<path d="M261.608 213.89L253.788 209.368L246.664 213.542L253.788 217.716L246.664 221.89L239.54 217.716L232.415 221.89L239.54 226.064L232.415 230.238L268.211 250.935L275.336 246.761L282.46 250.935L289.584 246.761L282.46 242.587L289.584 238.413L296.709 242.587L303.833 238.413L296.014 233.891C298.273 231.282 297.925 228.151 295.493 225.717C292.886 223.282 288.368 221.542 283.329 221.542C283.155 218.586 280.375 215.977 276.031 214.412C271.513 212.673 266.126 212.499 261.608 213.89ZM246.664 229.891L264.562 219.629C266.473 218.412 269.775 218.412 271.686 219.629C273.598 220.847 273.598 222.586 271.686 223.803L253.788 234.065L246.664 229.891ZM285.935 231.978L268.037 242.239L260.913 238.065L278.811 227.804C280.722 226.586 284.024 226.586 285.935 227.804C288.021 229.021 288.021 230.934 285.935 231.978Z" fill="white"/>
<path d="M206.35 212.846L329.898 213.89V231.108C329.898 240.326 323.817 249.37 311.827 256.326C287.673 270.24 248.576 270.24 224.422 256.326C212.432 249.37 206.35 240.152 206.35 231.108V212.846Z" fill="url(#paint13_linear_30_3838)"/>
<path d="M212.432 210.759H210.347V268.849H212.432V210.759Z" fill="#4D0063"/>
<path d="M219.556 210.759H217.471V268.849H219.556V210.759Z" fill="#4D0063"/>
<path d="M226.507 210.759H224.422V268.849H226.507V210.759Z" fill="#4D0063"/>
<path d="M233.632 210.759H231.546V268.849H233.632V210.759Z" fill="#4D0063"/>
<path d="M240.756 210.759H238.671V268.849H240.756V210.759Z" fill="#4D0063"/>
<path d="M247.88 210.759H245.795V268.849H247.88V210.759Z" fill="#4D0063"/>
<path d="M255.005 210.759H252.919V268.849H255.005V210.759Z" fill="#4D0063"/>
<path d="M262.129 210.759H260.044V268.849H262.129V210.759Z" fill="#4D0063"/>
<path d="M269.254 210.759H267.168V268.849H269.254V210.759Z" fill="#4D0063"/>
<path d="M276.378 210.759H274.293V268.849H276.378V210.759Z" fill="#4D0063"/>
<path d="M283.329 210.759H281.244V268.849H283.329V210.759Z" fill="#4D0063"/>
<path d="M290.453 210.759H288.368V268.849H290.453V210.759Z" fill="#4D0063"/>
<path d="M297.578 210.759H295.493V268.849H297.578V210.759Z" fill="#4D0063"/>
<path d="M304.702 210.759H302.617V268.849H304.702V210.759Z" fill="#4D0063"/>
<path d="M311.826 210.759H309.741V268.849H311.826V210.759Z" fill="#4D0063"/>
<path d="M318.951 210.759H316.866V268.849H318.951V210.759Z" fill="#4D0063"/>
<path d="M326.075 210.759H323.99V268.849H326.075V210.759Z" fill="#4D0063"/>
<path d="M311.827 239.804C287.673 253.718 248.575 253.718 224.422 239.804C200.268 225.89 200.268 203.281 224.422 189.367C248.575 175.454 287.673 175.454 311.827 189.367C335.98 203.281 335.98 225.89 311.827 239.804Z" fill="url(#paint14_linear_30_3838)"/>
<path d="M268.211 243.978C298.057 243.978 322.253 230.04 322.253 212.846C322.253 195.653 298.057 181.715 268.211 181.715C238.365 181.715 214.169 195.653 214.169 212.846C214.169 230.04 238.365 243.978 268.211 243.978Z" stroke="#4D0063" stroke-width="1.1865" stroke-miterlimit="10"/>
<path d="M261.608 193.541L253.788 189.019L246.664 193.193L253.788 197.368L246.664 201.542L239.54 197.368L232.415 201.542L239.54 205.716L232.415 209.89L268.211 230.586L275.336 226.412L282.46 230.586L289.584 226.412L282.46 222.238L289.584 218.064L296.709 222.238L303.833 218.064L296.014 213.542C298.273 210.933 297.925 207.803 295.493 205.368C292.886 202.933 288.368 201.194 283.329 201.194C283.155 198.237 280.375 195.628 276.031 194.063C271.513 192.324 266.126 192.324 261.608 193.541ZM246.664 209.716L264.562 199.455C266.473 198.237 269.775 198.237 271.686 199.455C273.598 200.672 273.598 202.411 271.686 203.629L253.788 213.89L246.664 209.716ZM285.935 211.803L268.037 222.064L260.913 217.89L278.811 207.629C280.722 206.411 284.024 206.411 285.935 207.629C288.021 208.672 288.021 210.585 285.935 211.803Z" fill="white"/>
<path d="M206.35 192.672L329.898 193.715V210.933C329.898 220.151 323.817 229.195 311.827 236.152C287.673 250.065 248.576 250.065 224.422 236.152C212.432 229.195 206.35 219.977 206.35 210.933V192.672Z" fill="url(#paint15_linear_30_3838)"/>
<path d="M212.432 190.411H210.347V248.5H212.432V190.411Z" fill="#4D0063"/>
<path d="M219.556 190.411H217.471V248.5H219.556V190.411Z" fill="#4D0063"/>
<path d="M226.507 190.411H224.422V248.5H226.507V190.411Z" fill="#4D0063"/>
<path d="M233.631 190.411H231.546V248.5H233.631V190.411Z" fill="#4D0063"/>
<path d="M240.756 190.411H238.67V248.5H240.756V190.411Z" fill="#4D0063"/>
<path d="M247.88 190.411H245.795V248.5H247.88V190.411Z" fill="#4D0063"/>
<path d="M255.005 190.411H252.919V248.5H255.005V190.411Z" fill="#4D0063"/>
<path d="M262.129 190.411H260.044V248.5H262.129V190.411Z" fill="#4D0063"/>
<path d="M269.254 190.411H267.168V248.5H269.254V190.411Z" fill="#4D0063"/>
<path d="M276.378 190.411H274.293V248.5H276.378V190.411Z" fill="#4D0063"/>
<path d="M283.328 190.411H281.243V248.5H283.328V190.411Z" fill="#4D0063"/>
<path d="M290.453 190.411H288.368V248.5H290.453V190.411Z" fill="#4D0063"/>
<path d="M297.578 190.411H295.493V248.5H297.578V190.411Z" fill="#4D0063"/>
<path d="M304.702 190.411H302.617V248.5H304.702V190.411Z" fill="#4D0063"/>
<path d="M311.826 190.411H309.741V248.5H311.826V190.411Z" fill="#4D0063"/>
<path d="M318.951 190.411H316.866V248.5H318.951V190.411Z" fill="#4D0063"/>
<path d="M326.075 190.411H323.99V248.5H326.075V190.411Z" fill="#4D0063"/>
<path d="M311.826 219.455C287.673 233.369 248.575 233.369 224.422 219.455C200.268 205.542 200.268 182.932 224.422 169.019C248.575 155.105 287.673 155.105 311.826 169.019C335.98 182.932 335.98 205.542 311.826 219.455Z" fill="url(#paint16_linear_30_3838)"/>
<path d="M268.211 223.803C298.057 223.803 322.253 209.865 322.253 192.672C322.253 175.478 298.057 161.54 268.211 161.54C238.365 161.54 214.169 175.478 214.169 192.672C214.169 209.865 238.365 223.803 268.211 223.803Z" stroke="#4D0063" stroke-width="1.1865" stroke-miterlimit="10"/>
<path d="M261.608 173.193L253.788 168.671L246.664 172.845L253.788 177.019L246.664 181.193L239.54 177.019L232.415 181.193L239.54 185.367L232.415 189.541L268.211 210.238L275.336 206.064L282.46 210.238L289.584 206.064L282.46 201.889L289.584 197.715L296.709 201.889L303.833 197.715L296.014 193.193C298.273 190.585 297.925 187.454 295.493 185.019C292.886 182.584 288.368 180.845 283.329 180.845C283.155 177.889 280.375 175.28 276.031 173.714C271.513 172.149 266.126 171.975 261.608 173.193ZM246.664 189.367L264.562 179.106C266.473 177.889 269.775 177.889 271.686 179.106C273.598 180.323 273.598 182.063 271.686 183.28L253.788 193.541L246.664 189.367ZM285.935 191.454L268.037 201.716L260.913 197.541L278.811 187.28C280.722 186.063 284.024 186.063 285.935 187.28C288.021 188.498 288.021 190.237 285.935 191.454Z" fill="white"/>
<g opacity="0.5">
<path opacity="0.5" d="M333.895 114.929H333.548C333.374 114.929 333.374 114.756 333.374 114.756V114.408C333.374 114.234 333.548 114.234 333.548 114.234H333.895C334.069 114.234 334.069 114.408 334.069 114.408V114.756C334.069 114.756 334.069 114.929 333.895 114.929Z" fill="white"/>
<path opacity="0.5" d="M330.246 166.41H329.898C329.725 166.41 329.725 166.236 329.725 166.236V165.888C329.725 165.714 329.898 165.714 329.898 165.714H330.246C330.42 165.714 330.42 165.888 330.42 165.888V166.236C330.42 166.236 330.42 166.41 330.246 166.41Z" fill="white"/>
<path opacity="0.5" d="M306.614 155.279H306.266C306.092 155.279 306.092 155.105 306.092 155.105V154.757C306.092 154.583 306.266 154.583 306.266 154.583H306.614C306.787 154.583 306.787 154.757 306.787 154.757V154.931C306.961 155.105 306.787 155.279 306.614 155.279Z" fill="white"/>
<path opacity="0.5" d="M290.801 158.931H290.454C290.28 158.931 290.28 158.757 290.28 158.757V158.409C290.28 158.236 290.454 158.236 290.454 158.236H290.801C290.975 158.236 290.975 158.409 290.975 158.409V158.757C291.149 158.757 290.975 158.931 290.801 158.931Z" fill="white"/>
<path opacity="0.5" d="M282.634 142.583L282.287 142.409C282.113 142.409 282.113 142.235 282.113 142.061L282.287 141.713C282.287 141.539 282.46 141.539 282.634 141.539L282.982 141.713C283.155 141.713 283.155 141.887 283.155 142.061L282.982 142.409C282.982 142.583 282.808 142.583 282.634 142.583Z" fill="white"/>
<path opacity="0.5" d="M270.122 173.714L269.775 173.541C269.601 173.541 269.601 173.367 269.601 173.193L269.775 172.845C269.775 172.671 269.949 172.671 270.122 172.671L270.47 172.845C270.644 172.845 270.644 173.019 270.644 173.193L270.47 173.541C270.47 173.714 270.296 173.714 270.122 173.714Z" fill="white"/>
<path opacity="0.5" d="M251.182 128.843L250.834 128.669C250.661 128.669 250.661 128.495 250.661 128.321L250.834 127.973C250.834 127.8 251.008 127.8 251.182 127.8L251.529 127.973C251.703 127.973 251.703 128.147 251.703 128.321L251.529 128.669C251.356 128.843 251.182 128.843 251.182 128.843Z" fill="white"/>
<path opacity="0.5" d="M219.209 142.931L218.862 142.757C218.688 142.757 218.688 142.583 218.688 142.409L218.862 142.061C218.862 141.887 219.035 141.887 219.209 141.887L219.557 142.061C219.73 142.061 219.73 142.235 219.73 142.409L219.557 142.757C219.383 142.931 219.383 143.105 219.209 142.931Z" fill="white"/>
<path opacity="0.5" d="M234.848 189.715L234.5 189.541C234.327 189.541 234.327 189.367 234.327 189.193L234.5 188.845C234.5 188.672 234.674 188.672 234.848 188.672L235.196 188.845C235.369 188.845 235.369 189.019 235.369 189.193L235.196 189.541C235.022 189.715 235.022 189.889 234.848 189.715Z" fill="white"/>
<path opacity="0.5" d="M240.756 157.888L240.409 157.714C240.235 157.714 240.235 157.54 240.235 157.366L240.409 157.018C240.409 156.844 240.582 156.844 240.756 156.844L241.104 157.018C241.277 157.018 241.277 157.192 241.277 157.366L241.104 157.714C241.104 157.888 240.93 157.888 240.756 157.888Z" fill="white"/>
<path opacity="0.5" d="M219.209 119.277L218.862 119.104C218.688 119.104 218.688 118.93 218.688 118.756L218.862 118.408C218.862 118.234 219.035 118.234 219.209 118.234L219.557 118.408C219.73 118.408 219.73 118.582 219.73 118.756L219.557 119.104C219.383 119.277 219.383 119.277 219.209 119.277Z" fill="white"/>
<path opacity="0.5" d="M193.839 150.409L193.491 150.235C193.318 150.235 193.318 150.061 193.318 149.887L193.491 149.54C193.491 149.366 193.665 149.366 193.839 149.366L194.186 149.54C194.36 149.54 194.36 149.713 194.36 149.887L194.186 150.235C194.186 150.409 194.013 150.409 193.839 150.409Z" fill="white"/>
<path opacity="0.5" d="M193.839 126.756L193.491 126.582C193.318 126.582 193.318 126.408 193.318 126.234L193.491 125.886C193.491 125.713 193.665 125.712 193.839 125.712L194.186 125.886C194.36 125.886 194.36 126.06 194.36 126.234L194.186 126.582C194.186 126.756 194.013 126.756 193.839 126.756Z" fill="white"/>
<path opacity="0.5" d="M349.708 142.583L349.36 142.409C349.187 142.409 349.187 142.235 349.187 142.061L349.36 141.713C349.36 141.539 349.534 141.539 349.708 141.539L350.055 141.713C350.229 141.713 350.229 141.887 350.229 142.061L350.055 142.409C349.882 142.583 349.708 142.583 349.708 142.583Z" fill="white"/>
<path opacity="0.5" d="M351.793 126.756L351.446 126.582C351.272 126.582 351.272 126.408 351.272 126.234L351.446 125.886C351.446 125.713 351.619 125.712 351.793 125.712L352.141 125.886C352.315 125.886 352.315 126.06 352.315 126.234L352.141 126.582C351.967 126.756 351.793 126.756 351.793 126.756Z" fill="white"/>
<path opacity="0.5" d="M320.689 149.192L320.341 149.018C320.167 149.018 320.167 148.844 320.167 148.67L320.341 148.322C320.341 148.148 320.515 148.148 320.689 148.148L321.036 148.322C321.21 148.322 321.21 148.496 321.21 148.67L321.036 149.018C320.863 149.018 320.689 149.192 320.689 149.192Z" fill="white"/>
<path opacity="0.5" d="M307.657 121.538L307.309 121.365C307.135 121.365 307.135 121.191 307.135 121.017L307.309 120.669C307.309 120.495 307.483 120.495 307.657 120.495L308.004 120.669C308.178 120.669 308.178 120.843 308.178 121.017L308.004 121.365C307.83 121.538 307.657 121.538 307.657 121.538Z" fill="white"/>
<path opacity="0.5" d="M273.076 201.889H272.729C272.555 201.889 272.555 201.716 272.555 201.716V201.368C272.555 201.194 272.729 201.194 272.729 201.194H273.076C273.25 201.194 273.25 201.368 273.25 201.368V201.716C273.25 201.889 273.25 201.889 273.076 201.889Z" fill="white"/>
<path opacity="0.5" d="M312.522 176.323L312.174 176.149C312 176.149 312 175.975 312 175.801L312.174 175.454C312.174 175.28 312.348 175.28 312.522 175.28L312.869 175.454C313.043 175.454 313.043 175.628 313.043 175.801L312.869 176.149C312.869 176.323 312.696 176.323 312.522 176.323Z" fill="white"/>
<path opacity="0.5" d="M219.904 163.627L219.556 163.453C219.383 163.453 219.383 163.279 219.383 163.105L219.556 162.757C219.556 162.584 219.73 162.584 219.904 162.584L220.251 162.757C220.425 162.757 220.425 162.931 220.425 163.105L220.251 163.453C220.251 163.627 220.078 163.627 219.904 163.627Z" fill="white"/>
<path opacity="0.5" d="M288.368 192.15L288.02 191.976C287.847 191.976 287.847 191.802 287.847 191.628L288.02 191.28C288.02 191.106 288.194 191.106 288.368 191.106L288.716 191.28C288.889 191.28 288.889 191.454 288.889 191.628L288.716 191.976C288.542 192.15 288.368 192.15 288.368 192.15Z" fill="white"/>
<path opacity="0.5" d="M296.362 132.321L296.014 132.148C295.84 132.148 295.84 131.974 295.84 131.8L296.014 131.452C296.014 131.278 296.188 131.278 296.362 131.278L296.709 131.452C296.883 131.452 296.883 131.626 296.883 131.8L296.709 132.148C296.535 132.321 296.535 132.495 296.362 132.321Z" fill="white"/>
</g>
<g opacity="0.5">
<path opacity="0.5" d="M288.716 29.1869H288.368C288.194 29.1869 288.194 29.013 288.194 29.013V28.6652C288.194 28.4912 288.368 28.4912 288.368 28.4912H288.716C288.889 28.4912 288.889 28.6652 288.889 28.6652V29.013C288.889 29.1869 288.716 29.1869 288.716 29.1869Z" fill="white"/>
<path opacity="0.5" d="M284.893 80.8412H284.545C284.372 80.8412 284.372 80.6672 284.372 80.6672V80.1455C284.372 79.9716 284.545 79.9716 284.545 79.9716H284.893C285.067 79.9716 285.067 80.1455 285.067 80.1455V80.4933C285.24 80.6672 285.067 80.8412 284.893 80.8412Z" fill="white"/>
<path opacity="0.5" d="M262.998 54.9271H262.65C262.477 54.9271 262.477 54.7531 262.477 54.7531V54.4053C262.477 54.2314 262.65 54.2314 262.65 54.2314H262.998C263.172 54.2314 263.172 54.4053 263.172 54.4053V54.7531L262.998 54.9271Z" fill="white"/>
<path opacity="0.5" d="M245.621 73.1887H245.274C245.1 73.1887 245.1 73.0147 245.1 73.0147V72.6669C245.1 72.493 245.274 72.493 245.274 72.493H245.621C245.795 72.493 245.795 72.6669 245.795 72.6669V73.0147C245.795 73.1887 245.621 73.1887 245.621 73.1887Z" fill="white"/>
<path opacity="0.5" d="M231.025 41.0135L230.678 40.8396C230.504 40.8396 230.504 40.6657 230.504 40.4917L230.678 40.1439C230.678 39.97 230.851 39.97 231.025 39.97L231.373 40.1439C231.547 40.1439 231.547 40.3178 231.547 40.4917L231.373 40.8396C231.199 41.0135 231.199 41.1874 231.025 41.0135Z" fill="white"/>
<path opacity="0.5" d="M224.943 88.1458L224.596 87.9719C224.422 87.9719 224.422 87.798 224.422 87.6241L224.596 87.2762C224.596 87.1023 224.769 87.1023 224.943 87.1023L225.291 87.2762C225.464 87.2762 225.464 87.4501 225.464 87.6241L225.291 87.9719C225.117 88.1458 225.117 88.1458 224.943 88.1458Z" fill="white"/>
<path opacity="0.5" d="M205.829 43.2744L205.481 43.1005C205.307 43.1005 205.307 42.9266 205.307 42.7527L205.481 42.4048C205.481 42.2309 205.655 42.2309 205.829 42.2309L206.176 42.4048C206.35 42.4048 206.35 42.5787 206.35 42.7527L206.176 43.1005C206.002 43.2744 206.002 43.2744 205.829 43.2744Z" fill="white"/>
<path opacity="0.5" d="M189.669 104.146L189.321 103.973C189.147 103.973 189.147 103.799 189.147 103.625L189.321 103.277C189.321 103.103 189.495 103.103 189.669 103.103L190.016 103.277C190.19 103.277 190.19 103.451 190.19 103.625L190.016 103.973C189.842 104.146 189.669 104.146 189.669 104.146Z" fill="white"/>
<path opacity="0.5" d="M195.576 72.1451L195.229 71.9712C195.055 71.9712 195.055 71.7973 195.055 71.6234L195.229 71.2755C195.229 71.1016 195.403 71.1016 195.576 71.1016L195.924 71.2755C196.098 71.2755 196.098 71.4495 196.098 71.6234L195.924 71.9712C195.75 72.1451 195.75 72.3191 195.576 72.1451Z" fill="white"/>
<path opacity="0.5" d="M304.355 56.8402L304.007 56.6663C303.833 56.6663 303.833 56.4924 303.833 56.3185L304.007 55.9706C304.007 55.7967 304.181 55.7967 304.355 55.7967L304.702 55.9706C304.876 55.9706 304.876 56.1445 304.876 56.3185L304.702 56.6663C304.702 56.8402 304.529 57.0141 304.355 56.8402Z" fill="white"/>
<path opacity="0.5" d="M318.603 88.6675L318.256 88.4936C318.082 88.4936 318.082 88.3197 318.082 88.1458L318.256 87.7979C318.256 87.624 318.43 87.624 318.603 87.624L318.951 87.7979C319.125 87.7979 319.125 87.9719 319.125 88.1458L318.951 88.4936C318.777 88.6675 318.603 88.8415 318.603 88.6675Z" fill="white"/>
<path opacity="0.5" d="M351.793 85.7109L351.445 85.537C351.271 85.537 351.271 85.3631 351.271 85.1892L351.445 84.8413C351.445 84.6674 351.619 84.6674 351.793 84.6674L352.14 84.8413C352.314 84.8413 352.314 85.0153 352.314 85.1892L352.14 85.537C352.14 85.7109 351.967 85.8849 351.793 85.7109Z" fill="white"/>
<path opacity="0.5" d="M373.862 75.9714L373.514 75.7975C373.34 75.7975 373.34 75.6236 373.34 75.4496L373.514 75.1018C373.514 74.9279 373.688 74.9279 373.862 74.9279L374.209 75.1018C374.383 75.1018 374.383 75.2757 374.383 75.4496L374.209 75.7975C374.035 75.9714 373.862 75.9714 373.862 75.9714Z" fill="white"/>
<path opacity="0.5" d="M227.897 116.321H227.55C227.376 116.321 227.376 116.147 227.376 116.147V115.799C227.376 115.625 227.55 115.625 227.55 115.625H227.897C228.071 115.625 228.071 115.799 228.071 115.799V116.147L227.897 116.321Z" fill="white"/>
<path opacity="0.5" d="M267.343 90.5807L266.995 90.4068C266.821 90.4068 266.821 90.2328 266.821 90.0589L266.995 89.7111C266.995 89.5372 267.169 89.5372 267.343 89.5372L267.69 89.7111C267.864 89.7111 267.864 89.885 267.864 90.0589L267.69 90.4068C267.516 90.5807 267.343 90.7546 267.343 90.5807Z" fill="white"/>
<path opacity="0.5" d="M174.724 77.8845L174.377 77.7106C174.203 77.7106 174.203 77.5367 174.203 77.3628L174.377 77.0149C174.377 76.841 174.551 76.841 174.724 76.841L175.072 77.0149C175.246 77.0149 175.246 77.1888 175.246 77.3628L175.072 77.7106C174.898 77.8845 174.724 77.8845 174.724 77.8845Z" fill="white"/>
<path opacity="0.5" d="M243.015 106.581L242.667 106.407C242.494 106.407 242.494 106.233 242.494 106.06L242.667 105.712C242.667 105.538 242.841 105.538 243.015 105.538L243.362 105.712C243.536 105.712 243.536 105.886 243.536 106.06L243.362 106.407C243.189 106.581 243.189 106.581 243.015 106.581Z" fill="white"/>
<path opacity="0.5" d="M282.113 49.1877L281.765 49.0138C281.591 49.0138 281.591 48.8399 281.591 48.666L281.765 48.3181C281.765 48.1442 281.939 48.1442 282.113 48.1442L282.46 48.3181C282.634 48.3181 282.634 48.4921 282.634 48.666L282.46 49.0138C282.286 49.1877 282.286 49.1877 282.113 49.1877Z" fill="white"/>
</g>
<path opacity="0.8" d="M311.827 219.803C287.847 233.717 248.749 233.717 224.769 219.803C212.258 212.499 206.176 202.933 206.698 193.367C191.58 164.671 169.685 137.539 129.371 65.1883C195.229 -10.4669 298.968 -27.511 398.884 53.0139C409.136 61.3621 338.413 175.106 329.899 193.367C330.42 202.933 324.512 212.673 311.827 219.803Z" fill="url(#paint17_linear_30_3838)"/>
<defs>
<linearGradient id="paint0_linear_30_3838" x1="264.592" y1="97.7377" x2="264.592" y2="175.856" gradientUnits="userSpaceOnUse">
<stop offset="0.0055835" stop-color="#EB5757"/>
<stop offset="0.0873016" stop-color="#EB5757"/>
<stop offset="0.0874016" stop-color="#EA5757"/>
<stop offset="0.195583" stop-color="#D65767"/>
<stop offset="0.340584" stop-color="#B9567C"/>
<stop offset="0.490584" stop-color="#9B5591"/>
<stop offset="0.9709" stop-color="#3C53D7"/>
<stop offset="1" stop-color="#EB5757"/>
</linearGradient>
<linearGradient id="paint1_linear_30_3838" x1="258.837" y1="100.936" x2="258.837" y2="175.345" gradientUnits="userSpaceOnUse">
<stop offset="0.0055835" stop-color="#EB5757"/>
<stop offset="0.0873016" stop-color="#EB5757"/>
<stop offset="0.0874016" stop-color="#EA5757"/>
<stop offset="0.195583" stop-color="#D65767"/>
<stop offset="0.340584" stop-color="#B9567C"/>
<stop offset="0.490584" stop-color="#9B5591"/>
<stop offset="0.9709" stop-color="#3C53D7"/>
<stop offset="1" stop-color="#EB5757"/>
</linearGradient>
<linearGradient id="paint2_linear_30_3838" x1="413.258" y1="363.771" x2="155.35" y2="282.856" gradientUnits="userSpaceOnUse">
<stop stop-color="#000053"/>
<stop offset="0.5425" stop-color="#23007F"/>
<stop offset="1" stop-color="#4F34D7"/>
</linearGradient>
<linearGradient id="paint3_linear_30_3838" x1="266.516" y1="289.277" x2="266.516" y2="437.44" gradientUnits="userSpaceOnUse">
<stop offset="0.0055835" stop-color="#EB5757"/>
<stop offset="0.0873016" stop-color="#EB5757"/>
<stop offset="0.0874016" stop-color="#EA5757"/>
<stop offset="0.195583" stop-color="#D65767"/>
<stop offset="0.340584" stop-color="#B9567C"/>
<stop offset="0.490584" stop-color="#9B5591"/>
<stop offset="0.9709" stop-color="#3C53D7"/>
<stop offset="1" stop-color="#EB5757"/>
</linearGradient>
<linearGradient id="paint4_linear_30_3838" x1="219.64" y1="245.493" x2="330.63" y2="383.797" gradientUnits="userSpaceOnUse">
<stop stop-color="#3C53D7"/>
<stop offset="1" stop-color="#1A1B6E"/>
</linearGradient>
<radialGradient id="paint5_radial_30_3838" cx="0" cy="0" r="1" gradientUnits="userSpaceOnUse" gradientTransform="translate(265.377 303.686) scale(68.7558 58.0582)">
<stop stop-color="#2F3C9E"/>
<stop offset="0.1211" stop-color="#253184"/>
<stop offset="0.2995" stop-color="#192364"/>
<stop offset="0.4722" stop-color="#11194D"/>
<stop offset="0.635" stop-color="#0C1340"/>
<stop offset="0.7778" stop-color="#0A113B"/>
<stop offset="1" stop-color="#000020"/>
</radialGradient>
<radialGradient id="paint6_radial_30_3838" cx="0" cy="0" r="1" gradientUnits="userSpaceOnUse" gradientTransform="translate(267.249 301.118) scale(57.8878 48.8811)">
<stop stop-color="#2F3C9E"/>
<stop offset="0.1211" stop-color="#253184"/>
<stop offset="0.2995" stop-color="#192364"/>
<stop offset="0.4722" stop-color="#11194D"/>
<stop offset="0.635" stop-color="#0C1340"/>
<stop offset="0.7778" stop-color="#0A113B"/>
<stop offset="1" stop-color="#000020"/>
</radialGradient>
<linearGradient id="paint7_linear_30_3838" x1="268.144" y1="295.452" x2="268.144" y2="348.095" gradientUnits="userSpaceOnUse">
<stop offset="0.0055835" stop-color="#EB5757"/>
<stop offset="0.0873016" stop-color="#EB5757"/>
<stop offset="0.0874016" stop-color="#EA5757"/>
<stop offset="0.195583" stop-color="#D65767"/>
<stop offset="0.340584" stop-color="#B9567C"/>
<stop offset="0.490584" stop-color="#9B5591"/>
<stop offset="0.9709" stop-color="#3C53D7"/>
<stop offset="1" stop-color="#EB5757"/>
</linearGradient>
<linearGradient id="paint8_linear_30_3838" x1="268.231" y1="268.548" x2="268.231" y2="338.173" gradientUnits="userSpaceOnUse">
<stop offset="0.0055835" stop-color="#EB5757"/>
<stop offset="0.0873016" stop-color="#EB5757"/>
<stop offset="0.0874016" stop-color="#EA5757"/>
<stop offset="0.195583" stop-color="#D65767"/>
<stop offset="0.340584" stop-color="#B9567C"/>
<stop offset="0.490584" stop-color="#9B5591"/>
<stop offset="0.9709" stop-color="#3C53D7"/>
<stop offset="1" stop-color="#EB5757"/>
</linearGradient>
<linearGradient id="paint9_linear_30_3838" x1="268.144" y1="275.277" x2="268.144" y2="327.92" gradientUnits="userSpaceOnUse">
<stop offset="0.0055835" stop-color="#EB5757"/>
<stop offset="0.0873016" stop-color="#EB5757"/>
<stop offset="0.0874016" stop-color="#EA5757"/>
<stop offset="0.195583" stop-color="#D65767"/>
<stop offset="0.340584" stop-color="#B9567C"/>
<stop offset="0.490584" stop-color="#9B5591"/>
<stop offset="0.9709" stop-color="#3C53D7"/>
<stop offset="1" stop-color="#EB5757"/>
</linearGradient>
<linearGradient id="paint10_linear_30_3838" x1="268.231" y1="248.2" x2="268.231" y2="317.824" gradientUnits="userSpaceOnUse">
<stop offset="0.0055835" stop-color="#EB5757"/>
<stop offset="0.0873016" stop-color="#EB5757"/>
<stop offset="0.0874016" stop-color="#EA5757"/>
<stop offset="0.195583" stop-color="#D65767"/>
<stop offset="0.340584" stop-color="#B9567C"/>
<stop offset="0.490584" stop-color="#9B5591"/>
<stop offset="0.9709" stop-color="#3C53D7"/>
<stop offset="1" stop-color="#EB5757"/>
</linearGradient>
<linearGradient id="paint11_linear_30_3838" x1="268.144" y1="254.928" x2="268.144" y2="307.572" gradientUnits="userSpaceOnUse">
<stop offset="0.0055835" stop-color="#EB5757"/>
<stop offset="0.0873016" stop-color="#EB5757"/>
<stop offset="0.0874016" stop-color="#EA5757"/>
<stop offset="0.195583" stop-color="#D65767"/>
<stop offset="0.340584" stop-color="#B9567C"/>
<stop offset="0.490584" stop-color="#9B5591"/>
<stop offset="0.9709" stop-color="#3C53D7"/>
<stop offset="1" stop-color="#EB5757"/>
</linearGradient>
<linearGradient id="paint12_linear_30_3838" x1="268.231" y1="227.851" x2="268.231" y2="297.476" gradientUnits="userSpaceOnUse">
<stop offset="0.0055835" stop-color="#EB5757"/>
<stop offset="0.0873016" stop-color="#EB5757"/>
<stop offset="0.0874016" stop-color="#EA5757"/>
<stop offset="0.195583" stop-color="#D65767"/>
<stop offset="0.340584" stop-color="#B9567C"/>
<stop offset="0.490584" stop-color="#9B5591"/>
<stop offset="0.9709" stop-color="#3C53D7"/>
<stop offset="1" stop-color="#EB5757"/>
</linearGradient>
<linearGradient id="paint13_linear_30_3838" x1="268.144" y1="234.58" x2="268.144" y2="287.223" gradientUnits="userSpaceOnUse">
<stop offset="0.0055835" stop-color="#EB5757"/>
<stop offset="0.0873016" stop-color="#EB5757"/>
<stop offset="0.0874016" stop-color="#EA5757"/>
<stop offset="0.195583" stop-color="#D65767"/>
<stop offset="0.340584" stop-color="#B9567C"/>
<stop offset="0.490584" stop-color="#9B5591"/>
<stop offset="0.9709" stop-color="#3C53D7"/>
<stop offset="1" stop-color="#EB5757"/>
</linearGradient>
<linearGradient id="paint14_linear_30_3838" x1="268.144" y1="207.676" x2="268.144" y2="277.301" gradientUnits="userSpaceOnUse">
<stop offset="0.0055835" stop-color="#EB5757"/>
<stop offset="0.0873016" stop-color="#EB5757"/>
<stop offset="0.0874016" stop-color="#EA5757"/>
<stop offset="0.195583" stop-color="#D65767"/>
<stop offset="0.340584" stop-color="#B9567C"/>
<stop offset="0.490584" stop-color="#9B5591"/>
<stop offset="0.9709" stop-color="#3C53D7"/>
<stop offset="1" stop-color="#EB5757"/>
</linearGradient>
<linearGradient id="paint15_linear_30_3838" x1="268.144" y1="214.405" x2="268.144" y2="267.048" gradientUnits="userSpaceOnUse">
<stop offset="0.0055835" stop-color="#EB5757"/>
<stop offset="0.0873016" stop-color="#EB5757"/>
<stop offset="0.0874016" stop-color="#EA5757"/>
<stop offset="0.195583" stop-color="#D65767"/>
<stop offset="0.340584" stop-color="#B9567C"/>
<stop offset="0.490584" stop-color="#9B5591"/>
<stop offset="0.9709" stop-color="#3C53D7"/>
<stop offset="1" stop-color="#EB5757"/>
</linearGradient>
<linearGradient id="paint16_linear_30_3838" x1="268.144" y1="187.328" x2="268.144" y2="256.952" gradientUnits="userSpaceOnUse">
<stop offset="0.0055835" stop-color="#EB5757"/>
<stop offset="0.0873016" stop-color="#EB5757"/>
<stop offset="0.0874016" stop-color="#EA5757"/>
<stop offset="0.195583" stop-color="#D65767"/>
<stop offset="0.340584" stop-color="#B9567C"/>
<stop offset="0.490584" stop-color="#9B5591"/>
<stop offset="0.9709" stop-color="#3C53D7"/>
<stop offset="1" stop-color="#EB5757"/>
</linearGradient>
<linearGradient id="paint17_linear_30_3838" x1="262.484" y1="19.5265" x2="274.599" y2="243.463" gradientUnits="userSpaceOnUse">
<stop stop-color="#F1EBF9" stop-opacity="0"/>
<stop offset="0.252" stop-color="#F2EEFA" stop-opacity="0"/>
<stop offset="0.2989" stop-color="#F3F0FA" stop-opacity="0"/>
<stop offset="0.4873" stop-color="#EDF9FD" stop-opacity="0.137"/>
<stop offset="0.5741" stop-color="#E9FFFF" stop-opacity="0.2"/>
<stop offset="1" stop-color="#E6FFFF"/>
</linearGradient>
<clipPath id="clip0_30_3838">
<rect width="614" height="309" fill="white" transform="translate(-0.00341797 165.345)"/>
</clipPath>
</defs>
</svg>
