<svg width="154" height="42" viewBox="0 0 154 42" fill="none" xmlns="http://www.w3.org/2000/svg">
<path d="M9.14692 20.166C9.14692 13.63 14.4192 8.35769 20.9552 8.31412L22.0445 3.56466C21.6959 3.52109 21.3474 3.52109 20.9988 3.52109C11.8484 3.52109 4.39746 10.9721 4.39746 20.1224C4.39746 24.1747 5.83537 27.8784 8.27546 30.7542L11.5434 27.1812C10.0619 25.3076 9.14692 22.8675 9.14692 20.166Z" fill="url(#paint0_linear_30_3837)"/>
<path d="M28.9726 28.9242C26.8811 30.8414 24.0924 32.0178 20.9987 32.0178C17.6872 32.0178 14.6806 30.6235 12.502 28.4449L9.27759 31.9743C12.2841 34.9808 16.4236 36.8109 20.9987 36.8109C25.4432 36.8109 29.4955 35.0679 32.4584 32.1921L28.9726 28.9242Z" fill="url(#paint1_linear_30_3837)"/>
<path d="M23.5697 3.78253L22.5239 8.44484C25.0076 8.74985 27.2298 9.83918 28.9727 11.4514L32.8072 8.53199C30.3671 6.04833 27.1427 4.34898 23.5697 3.78253Z" fill="url(#paint2_linear_30_3837)"/>
<path d="M16.685 11.3207C13.3735 12.9329 11.1077 16.3316 11.1077 20.2531C11.1077 24.1747 13.3735 27.5734 16.685 29.1856" stroke="url(#paint3_linear_30_3837)" stroke-miterlimit="10"/>
<path d="M16.6851 13.5429C17.9124 13.5429 18.9073 12.548 18.9073 11.3207C18.9073 10.0934 17.9124 9.09845 16.6851 9.09845C15.4578 9.09845 14.4629 10.0934 14.4629 11.3207C14.4629 12.548 15.4578 13.5429 16.6851 13.5429Z" fill="url(#paint4_radial_30_3837)"/>
<path d="M15.6392 11.3207C15.6392 11.8871 16.1185 12.3664 16.6849 12.3664C17.2514 12.3664 17.7307 11.8871 17.7307 11.3207C17.7307 10.7542 17.2514 10.2749 16.6849 10.2749C16.0749 10.2749 15.6392 10.7542 15.6392 11.3207Z" fill="url(#paint5_linear_30_3837)"/>
<path d="M16.6851 30.8414C17.9124 30.8414 18.9073 29.8464 18.9073 28.6191C18.9073 27.3918 17.9124 26.3969 16.6851 26.3969C15.4578 26.3969 14.4629 27.3918 14.4629 28.6191C14.4629 29.8464 15.4578 30.8414 16.6851 30.8414Z" fill="url(#paint6_radial_30_3837)"/>
<path d="M15.6392 28.6191C15.6392 29.1856 16.1185 29.6649 16.6849 29.6649C17.2514 29.6649 17.7307 29.1856 17.7307 28.6191C17.7307 28.0527 17.2514 27.5734 16.6849 27.5734C16.0749 27.5734 15.6392 28.0527 15.6392 28.6191Z" fill="url(#paint7_linear_30_3837)"/>
<path d="M32.9378 34.7194C29.6698 37.4209 25.5304 38.9895 20.9988 38.9895" stroke="url(#paint8_linear_30_3837)" stroke-miterlimit="10"/>
<path d="M7.40405 7.26838C10.8027 3.65182 15.6393 1.4296 20.9988 1.4296C25.5304 1.4296 29.7134 3.0418 32.9378 5.69975" stroke="url(#paint9_linear_30_3837)" stroke-miterlimit="10"/>
<path d="M2.21875 20.2096C2.21875 16.3751 3.39522 12.8022 5.356 9.79562" stroke="url(#paint10_linear_30_3837)" stroke-miterlimit="10"/>
<path d="M17.6871 38.7281C9.84393 37.3337 3.70014 31.1028 2.43652 23.2161" stroke="url(#paint11_linear_30_3837)" stroke-miterlimit="10"/>
<path d="M32.9378 37.0287C34.1651 37.0287 35.16 36.0338 35.16 34.8065C35.16 33.5792 34.1651 32.5843 32.9378 32.5843C31.7105 32.5843 30.7156 33.5792 30.7156 34.8065C30.7156 36.0338 31.7105 37.0287 32.9378 37.0287Z" fill="url(#paint12_radial_30_3837)"/>
<path d="M32.9378 35.8522C33.5154 35.8522 33.9836 35.384 33.9836 34.8065C33.9836 34.2289 33.5154 33.7607 32.9378 33.7607C32.3603 33.7607 31.8921 34.2289 31.8921 34.8065C31.8921 35.384 32.3603 35.8522 32.9378 35.8522Z" fill="url(#paint13_linear_30_3837)"/>
<path d="M21.5215 41.4296C22.7488 41.4296 23.7438 40.4347 23.7438 39.2074C23.7438 37.9801 22.7488 36.9852 21.5215 36.9852C20.2942 36.9852 19.2993 37.9801 19.2993 39.2074C19.2993 40.4347 20.2942 41.4296 21.5215 41.4296Z" fill="url(#paint14_radial_30_3837)"/>
<path d="M21.5216 40.2531C22.0991 40.2531 22.5673 39.7849 22.5673 39.2074C22.5673 38.6298 22.0991 38.1616 21.5216 38.1616C20.944 38.1616 20.4758 38.6298 20.4758 39.2074C20.4758 39.7849 20.944 40.2531 21.5216 40.2531Z" fill="url(#paint15_linear_30_3837)"/>
<path d="M17.3821 40.9503C18.6094 40.9503 19.6044 39.9554 19.6044 38.7281C19.6044 37.5008 18.6094 36.5059 17.3821 36.5059C16.1548 36.5059 15.1599 37.5008 15.1599 38.7281C15.1599 39.9554 16.1548 40.9503 17.3821 40.9503Z" fill="url(#paint16_radial_30_3837)"/>
<path d="M17.3822 39.7738C17.9597 39.7738 18.4279 39.3056 18.4279 38.7281C18.4279 38.1505 17.9597 37.6823 17.3822 37.6823C16.8046 37.6823 16.3364 38.1505 16.3364 38.7281C16.3364 39.3056 16.8046 39.7738 17.3822 39.7738Z" fill="url(#paint17_linear_30_3837)"/>
<path d="M2.61089 26.0483C3.83819 26.0483 4.83312 25.0534 4.83312 23.8261C4.83312 22.5988 3.83819 21.6039 2.61089 21.6039C1.38359 21.6039 0.388672 22.5988 0.388672 23.8261C0.388672 25.0534 1.38359 26.0483 2.61089 26.0483Z" fill="url(#paint18_radial_30_3837)"/>
<path d="M2.61094 24.8719C3.18849 24.8719 3.65669 24.4037 3.65669 23.8261C3.65669 23.2486 3.18849 22.7804 2.61094 22.7804C2.03338 22.7804 1.56519 23.2486 1.56519 23.8261C1.56519 24.4037 2.03338 24.8719 2.61094 24.8719Z" fill="url(#paint19_linear_30_3837)"/>
<path d="M2.2188 21.9089C3.4461 21.9089 4.44103 20.914 4.44103 19.6867C4.44103 18.4594 3.4461 17.4644 2.2188 17.4644C0.991505 17.4644 -0.00341797 18.4594 -0.00341797 19.6867C-0.00341797 20.914 0.991505 21.9089 2.2188 21.9089Z" fill="url(#paint20_radial_30_3837)"/>
<path d="M2.21885 20.7324C2.7964 20.7324 3.2646 20.2642 3.2646 19.6867C3.2646 19.1091 2.7964 18.6409 2.21885 18.6409C1.64129 18.6409 1.1731 19.1091 1.1731 19.6867C1.1731 20.2642 1.64129 20.7324 2.21885 20.7324Z" fill="url(#paint21_linear_30_3837)"/>
<path d="M5.18169 12.4971C6.40899 12.4971 7.40392 11.5022 7.40392 10.2749C7.40392 9.04763 6.40899 8.0527 5.18169 8.0527C3.9544 8.0527 2.95947 9.04763 2.95947 10.2749C2.95947 11.5022 3.9544 12.4971 5.18169 12.4971Z" fill="url(#paint22_radial_30_3837)"/>
<path d="M5.18174 11.3207C5.75929 11.3207 6.22749 10.8525 6.22749 10.2749C6.22749 9.69736 5.75929 9.22916 5.18174 9.22916C4.60419 9.22916 4.13599 9.69736 4.13599 10.2749C4.13599 10.8525 4.60419 11.3207 5.18174 11.3207Z" fill="url(#paint23_linear_30_3837)"/>
<path d="M5.53027 7.00695C5.53027 8.22699 6.53245 9.22917 7.7525 9.22917C8.97254 9.22917 9.97472 8.22699 9.97472 7.00695C9.97472 5.78691 8.97254 4.78473 7.7525 4.78473C6.48888 4.8283 5.53027 5.78691 5.53027 7.00695Z" fill="url(#paint24_radial_30_3837)"/>
<path d="M6.66333 7.00693C6.66333 7.57338 7.14263 8.05269 7.70908 8.05269C8.27553 8.05269 8.75483 7.57338 8.75483 7.00693C8.75483 6.44048 8.27553 5.96118 7.70908 5.96118C7.14263 6.00475 6.66333 6.44048 6.66333 7.00693Z" fill="url(#paint25_linear_30_3837)"/>
<path d="M33.1121 8.00911C34.3394 8.00911 35.3343 7.01419 35.3343 5.78689C35.3343 4.55959 34.3394 3.56467 33.1121 3.56467C31.8848 3.56467 30.8899 4.55959 30.8899 5.78689C30.8899 7.01419 31.8848 8.00911 33.1121 8.00911Z" fill="url(#paint26_radial_30_3837)"/>
<path d="M33.1122 6.83265C33.6897 6.83265 34.1579 6.36445 34.1579 5.7869C34.1579 5.20935 33.6897 4.74115 33.1122 4.74115C32.5346 4.74115 32.0664 5.20935 32.0664 5.7869C32.0664 6.36445 32.5346 6.83265 33.1122 6.83265Z" fill="url(#paint27_linear_30_3837)"/>
<path d="M37.1262 20.9816C37.1262 19.3176 37.4862 17.8376 38.2062 16.5416C38.9262 15.2296 39.9262 14.2136 41.2062 13.4936C42.5022 12.7576 43.9662 12.3896 45.5982 12.3896C47.5982 12.3896 49.3102 12.9176 50.7342 13.9736C52.1582 15.0296 53.1102 16.4696 53.5902 18.2936H49.0782C48.7422 17.5896 48.2622 17.0536 47.6382 16.6856C47.0302 16.3176 46.3342 16.1336 45.5502 16.1336C44.2862 16.1336 43.2622 16.5736 42.4782 17.4536C41.6942 18.3336 41.3022 19.5096 41.3022 20.9816C41.3022 22.4536 41.6942 23.6296 42.4782 24.5096C43.2622 25.3896 44.2862 25.8296 45.5502 25.8296C46.3342 25.8296 47.0302 25.6456 47.6382 25.2776C48.2622 24.9096 48.7422 24.3736 49.0782 23.6696H53.5902C53.1102 25.4936 52.1582 26.9336 50.7342 27.9896C49.3102 29.0296 47.5982 29.5496 45.5982 29.5496C43.9662 29.5496 42.5022 29.1896 41.2062 28.4696C39.9262 27.7336 38.9262 26.7176 38.2062 25.4216C37.4862 24.1256 37.1262 22.6456 37.1262 20.9816ZM60.2075 18.2696C60.6875 17.5336 61.2875 16.9576 62.0075 16.5416C62.7275 16.1096 63.5275 15.8936 64.4075 15.8936V20.2376H63.2795C62.2555 20.2376 61.4875 20.4616 60.9755 20.9096C60.4635 21.3416 60.2075 22.1096 60.2075 23.2136V29.4296H56.1035V16.0376H60.2075V18.2696ZM80.0491 16.0376L71.6491 35.7896H67.2331L70.3051 28.9736L64.8571 16.0376H69.4411L72.5371 24.4136L75.6091 16.0376H80.0491ZM85.6372 17.9336C86.0372 17.3096 86.5892 16.8056 87.2932 16.4216C87.9972 16.0376 88.8212 15.8456 89.7652 15.8456C90.8692 15.8456 91.8692 16.1256 92.7652 16.6856C93.6612 17.2456 94.3652 18.0456 94.8772 19.0856C95.4052 20.1256 95.6692 21.3336 95.6692 22.7096C95.6692 24.0856 95.4052 25.3016 94.8772 26.3576C94.3652 27.3976 93.6612 28.2056 92.7652 28.7816C91.8692 29.3416 90.8692 29.6216 89.7652 29.6216C88.8372 29.6216 88.0132 29.4296 87.2932 29.0456C86.5892 28.6616 86.0372 28.1656 85.6372 27.5576V35.8136H81.5332V16.0376H85.6372V17.9336ZM91.4932 22.7096C91.4932 21.6856 91.2052 20.8856 90.6292 20.3096C90.0692 19.7176 89.3732 19.4216 88.5412 19.4216C87.7252 19.4216 87.0292 19.7176 86.4532 20.3096C85.8932 20.9016 85.6132 21.7096 85.6132 22.7336C85.6132 23.7576 85.8932 24.5656 86.4532 25.1576C87.0292 25.7496 87.7252 26.0456 88.5412 26.0456C89.3572 26.0456 90.0532 25.7496 90.6292 25.1576C91.2052 24.5496 91.4932 23.7336 91.4932 22.7096ZM105.286 25.9496V29.4296H103.198C101.71 29.4296 100.55 29.0696 99.7182 28.3496C98.8862 27.6136 98.4702 26.4216 98.4702 24.7736V19.4456H96.8382V16.0376H98.4702V12.7736H102.574V16.0376H105.262V19.4456H102.574V24.8216C102.574 25.2216 102.67 25.5096 102.862 25.6856C103.054 25.8616 103.374 25.9496 103.822 25.9496H105.286ZM113.668 29.6216C112.356 29.6216 111.172 29.3416 110.116 28.7816C109.076 28.2216 108.252 27.4216 107.644 26.3816C107.052 25.3416 106.756 24.1256 106.756 22.7336C106.756 21.3576 107.06 20.1496 107.668 19.1096C108.276 18.0536 109.108 17.2456 110.164 16.6856C111.22 16.1256 112.404 15.8456 113.716 15.8456C115.028 15.8456 116.212 16.1256 117.268 16.6856C118.324 17.2456 119.156 18.0536 119.764 19.1096C120.372 20.1496 120.676 21.3576 120.676 22.7336C120.676 24.1096 120.364 25.3256 119.74 26.3816C119.132 27.4216 118.292 28.2216 117.22 28.7816C116.164 29.3416 114.98 29.6216 113.668 29.6216ZM113.668 26.0696C114.452 26.0696 115.116 25.7816 115.66 25.2056C116.22 24.6296 116.5 23.8056 116.5 22.7336C116.5 21.6616 116.228 20.8376 115.684 20.2616C115.156 19.6856 114.5 19.3976 113.716 19.3976C112.916 19.3976 112.252 19.6856 111.724 20.2616C111.196 20.8216 110.932 21.6456 110.932 22.7336C110.932 23.8056 111.188 24.6296 111.7 25.2056C112.228 25.7816 112.884 26.0696 113.668 26.0696ZM136.077 16.0376V29.4296H131.973V27.6056C131.557 28.1976 130.989 28.6776 130.269 29.0456C129.565 29.3976 128.781 29.5736 127.917 29.5736C126.893 29.5736 125.989 29.3496 125.205 28.9016C124.421 28.4376 123.813 27.7736 123.381 26.9096C122.949 26.0456 122.733 25.0296 122.733 23.8616V16.0376H126.813V23.3096C126.813 24.2056 127.045 24.9016 127.509 25.3976C127.973 25.8936 128.597 26.1416 129.381 26.1416C130.181 26.1416 130.813 25.8936 131.277 25.3976C131.741 24.9016 131.973 24.2056 131.973 23.3096V16.0376H136.077ZM144.473 29.6216C143.305 29.6216 142.265 29.4216 141.353 29.0216C140.441 28.6216 139.721 28.0776 139.193 27.3896C138.665 26.6856 138.369 25.9016 138.305 25.0376H142.361C142.409 25.5016 142.625 25.8776 143.009 26.1656C143.393 26.4536 143.865 26.5976 144.425 26.5976C144.937 26.5976 145.329 26.5016 145.601 26.3096C145.889 26.1016 146.033 25.8376 146.033 25.5176C146.033 25.1336 145.833 24.8536 145.433 24.6776C145.033 24.4856 144.385 24.2776 143.489 24.0536C142.529 23.8296 141.729 23.5976 141.089 23.3576C140.449 23.1016 139.897 22.7096 139.433 22.1816C138.969 21.6376 138.737 20.9096 138.737 19.9976C138.737 19.2296 138.945 18.5336 139.361 17.9096C139.793 17.2696 140.417 16.7656 141.233 16.3976C142.065 16.0296 143.049 15.8456 144.185 15.8456C145.865 15.8456 147.185 16.2616 148.145 17.0936C149.121 17.9256 149.681 19.0296 149.825 20.4056H146.033C145.969 19.9416 145.761 19.5736 145.409 19.3016C145.073 19.0296 144.625 18.8936 144.065 18.8936C143.585 18.8936 143.217 18.9896 142.961 19.1816C142.705 19.3576 142.577 19.6056 142.577 19.9256C142.577 20.3096 142.777 20.5976 143.177 20.7896C143.593 20.9816 144.233 21.1736 145.097 21.3656C146.089 21.6216 146.897 21.8776 147.521 22.1336C148.145 22.3736 148.689 22.7736 149.153 23.3336C149.633 23.8776 149.881 24.6136 149.897 25.5416C149.897 26.3256 149.673 27.0296 149.225 27.6536C148.793 28.2616 148.161 28.7416 147.329 29.0936C146.513 29.4456 145.561 29.6216 144.473 29.6216Z" fill="white"/>
<defs>
<linearGradient id="paint0_linear_30_3837" x1="13.2238" y1="14.4988" x2="13.2238" y2="41.0894" gradientUnits="userSpaceOnUse">
<stop offset="0.0055835" stop-color="#EB5757"/>
<stop offset="0.0873016" stop-color="#EB5757"/>
<stop offset="0.0874016" stop-color="#EA5757"/>
<stop offset="0.195583" stop-color="#D65767"/>
<stop offset="0.340584" stop-color="#B9567C"/>
<stop offset="0.490584" stop-color="#9B5591"/>
<stop offset="0.9709" stop-color="#3C53D7"/>
<stop offset="1" stop-color="#EB5757"/>
</linearGradient>
<linearGradient id="paint1_linear_30_3837" x1="20.8717" y1="31.8172" x2="20.8717" y2="39.9858" gradientUnits="userSpaceOnUse">
<stop offset="0.0055835" stop-color="#EB5757"/>
<stop offset="0.0873016" stop-color="#EB5757"/>
<stop offset="0.0874016" stop-color="#EA5757"/>
<stop offset="0.195583" stop-color="#D65767"/>
<stop offset="0.340584" stop-color="#B9567C"/>
<stop offset="0.490584" stop-color="#9B5591"/>
<stop offset="0.9709" stop-color="#3C53D7"/>
<stop offset="1" stop-color="#EB5757"/>
</linearGradient>
<linearGradient id="paint2_linear_30_3837" x1="27.6672" y1="6.87387" x2="27.6672" y2="14.3618" gradientUnits="userSpaceOnUse">
<stop offset="0.0055835" stop-color="#EB5757"/>
<stop offset="0.0873016" stop-color="#EB5757"/>
<stop offset="0.0874016" stop-color="#EA5757"/>
<stop offset="0.195583" stop-color="#D65767"/>
<stop offset="0.340584" stop-color="#B9567C"/>
<stop offset="0.490584" stop-color="#9B5591"/>
<stop offset="0.9709" stop-color="#3C53D7"/>
<stop offset="1" stop-color="#EB5757"/>
</linearGradient>
<linearGradient id="paint3_linear_30_3837" x1="13.8972" y1="18.5221" x2="13.8972" y2="35.9655" gradientUnits="userSpaceOnUse">
<stop offset="0.0055835" stop-color="#EB5757"/>
<stop offset="0.0873016" stop-color="#EB5757"/>
<stop offset="0.0874016" stop-color="#EA5757"/>
<stop offset="0.195583" stop-color="#D65767"/>
<stop offset="0.340584" stop-color="#B9567C"/>
<stop offset="0.490584" stop-color="#9B5591"/>
<stop offset="0.9709" stop-color="#3C53D7"/>
<stop offset="1" stop-color="#EB5757"/>
</linearGradient>
<radialGradient id="paint4_radial_30_3837" cx="0" cy="0" r="1" gradientUnits="userSpaceOnUse" gradientTransform="translate(16.7049 11.3198) scale(2.01651)">
<stop stop-color="#7F00FE"/>
<stop offset="1" stop-color="#450528" stop-opacity="0"/>
</radialGradient>
<linearGradient id="paint5_linear_30_3837" x1="16.6852" y1="11.118" x2="16.6852" y2="13.1602" gradientUnits="userSpaceOnUse">
<stop offset="0.0055835" stop-color="#EB5757"/>
<stop offset="0.0873016" stop-color="#EB5757"/>
<stop offset="0.0874016" stop-color="#EA5757"/>
<stop offset="0.195583" stop-color="#D65767"/>
<stop offset="0.340584" stop-color="#B9567C"/>
<stop offset="0.490584" stop-color="#9B5591"/>
<stop offset="0.9709" stop-color="#3C53D7"/>
<stop offset="1" stop-color="#EB5757"/>
</linearGradient>
<radialGradient id="paint6_radial_30_3837" cx="0" cy="0" r="1" gradientUnits="userSpaceOnUse" gradientTransform="translate(16.7049 28.6183) scale(2.01651)">
<stop stop-color="#7F00FE"/>
<stop offset="1" stop-color="#450528" stop-opacity="0"/>
</radialGradient>
<linearGradient id="paint7_linear_30_3837" x1="16.6852" y1="28.4165" x2="16.6852" y2="30.4586" gradientUnits="userSpaceOnUse">
<stop offset="0.0055835" stop-color="#EB5757"/>
<stop offset="0.0873016" stop-color="#EB5757"/>
<stop offset="0.0874016" stop-color="#EA5757"/>
<stop offset="0.195583" stop-color="#D65767"/>
<stop offset="0.340584" stop-color="#B9567C"/>
<stop offset="0.490584" stop-color="#9B5591"/>
<stop offset="0.9709" stop-color="#3C53D7"/>
<stop offset="1" stop-color="#EB5757"/>
</linearGradient>
<linearGradient id="paint8_linear_30_3837" x1="26.9702" y1="36.4407" x2="26.9702" y2="40.6101" gradientUnits="userSpaceOnUse">
<stop offset="0.0055835" stop-color="#EB5757"/>
<stop offset="0.0873016" stop-color="#EB5757"/>
<stop offset="0.0874016" stop-color="#EA5757"/>
<stop offset="0.195583" stop-color="#D65767"/>
<stop offset="0.340584" stop-color="#B9567C"/>
<stop offset="0.490584" stop-color="#9B5591"/>
<stop offset="0.9709" stop-color="#3C53D7"/>
<stop offset="1" stop-color="#EB5757"/>
</linearGradient>
<linearGradient id="paint9_linear_30_3837" x1="20.175" y1="3.78323" x2="20.175" y2="9.48425" gradientUnits="userSpaceOnUse">
<stop offset="0.0055835" stop-color="#EB5757"/>
<stop offset="0.0873016" stop-color="#EB5757"/>
<stop offset="0.0874016" stop-color="#EA5757"/>
<stop offset="0.195583" stop-color="#D65767"/>
<stop offset="0.340584" stop-color="#B9567C"/>
<stop offset="0.490584" stop-color="#9B5591"/>
<stop offset="0.9709" stop-color="#3C53D7"/>
<stop offset="1" stop-color="#EB5757"/>
</linearGradient>
<linearGradient id="paint10_linear_30_3837" x1="3.78788" y1="13.9935" x2="3.78788" y2="24.1618" gradientUnits="userSpaceOnUse">
<stop offset="0.0055835" stop-color="#EB5757"/>
<stop offset="0.0873016" stop-color="#EB5757"/>
<stop offset="0.0874016" stop-color="#EA5757"/>
<stop offset="0.195583" stop-color="#D65767"/>
<stop offset="0.340584" stop-color="#B9567C"/>
<stop offset="0.490584" stop-color="#9B5591"/>
<stop offset="0.9709" stop-color="#3C53D7"/>
<stop offset="1" stop-color="#EB5757"/>
</linearGradient>
<linearGradient id="paint11_linear_30_3837" x1="10.0642" y1="29.469" x2="10.0642" y2="44.615" gradientUnits="userSpaceOnUse">
<stop offset="0.0055835" stop-color="#EB5757"/>
<stop offset="0.0873016" stop-color="#EB5757"/>
<stop offset="0.0874016" stop-color="#EA5757"/>
<stop offset="0.195583" stop-color="#D65767"/>
<stop offset="0.340584" stop-color="#B9567C"/>
<stop offset="0.490584" stop-color="#9B5591"/>
<stop offset="0.9709" stop-color="#3C53D7"/>
<stop offset="1" stop-color="#EB5757"/>
</linearGradient>
<radialGradient id="paint12_radial_30_3837" cx="0" cy="0" r="1" gradientUnits="userSpaceOnUse" gradientTransform="translate(32.9576 34.8057) scale(2.01651)">
<stop stop-color="#7F00FE"/>
<stop offset="1" stop-color="#450528" stop-opacity="0"/>
</radialGradient>
<linearGradient id="paint13_linear_30_3837" x1="32.9382" y1="34.6038" x2="32.9382" y2="36.646" gradientUnits="userSpaceOnUse">
<stop offset="0.0055835" stop-color="#EB5757"/>
<stop offset="0.0873016" stop-color="#EB5757"/>
<stop offset="0.0874016" stop-color="#EA5757"/>
<stop offset="0.195583" stop-color="#D65767"/>
<stop offset="0.340584" stop-color="#B9567C"/>
<stop offset="0.490584" stop-color="#9B5591"/>
<stop offset="0.9709" stop-color="#3C53D7"/>
<stop offset="1" stop-color="#EB5757"/>
</linearGradient>
<radialGradient id="paint14_radial_30_3837" cx="0" cy="0" r="1" gradientUnits="userSpaceOnUse" gradientTransform="translate(21.5414 39.2066) scale(2.01651)">
<stop stop-color="#7F00FE"/>
<stop offset="1" stop-color="#450528" stop-opacity="0"/>
</radialGradient>
<linearGradient id="paint15_linear_30_3837" x1="21.5219" y1="39.0047" x2="21.5219" y2="41.0469" gradientUnits="userSpaceOnUse">
<stop offset="0.0055835" stop-color="#EB5757"/>
<stop offset="0.0873016" stop-color="#EB5757"/>
<stop offset="0.0874016" stop-color="#EA5757"/>
<stop offset="0.195583" stop-color="#D65767"/>
<stop offset="0.340584" stop-color="#B9567C"/>
<stop offset="0.490584" stop-color="#9B5591"/>
<stop offset="0.9709" stop-color="#3C53D7"/>
<stop offset="1" stop-color="#EB5757"/>
</linearGradient>
<radialGradient id="paint16_radial_30_3837" cx="0" cy="0" r="1" gradientUnits="userSpaceOnUse" gradientTransform="translate(17.402 38.7273) scale(2.01651)">
<stop stop-color="#7F00FE"/>
<stop offset="1" stop-color="#450528" stop-opacity="0"/>
</radialGradient>
<linearGradient id="paint17_linear_30_3837" x1="17.3825" y1="38.5254" x2="17.3825" y2="40.5676" gradientUnits="userSpaceOnUse">
<stop offset="0.0055835" stop-color="#EB5757"/>
<stop offset="0.0873016" stop-color="#EB5757"/>
<stop offset="0.0874016" stop-color="#EA5757"/>
<stop offset="0.195583" stop-color="#D65767"/>
<stop offset="0.340584" stop-color="#B9567C"/>
<stop offset="0.490584" stop-color="#9B5591"/>
<stop offset="0.9709" stop-color="#3C53D7"/>
<stop offset="1" stop-color="#EB5757"/>
</linearGradient>
<radialGradient id="paint18_radial_30_3837" cx="0" cy="0" r="1" gradientUnits="userSpaceOnUse" gradientTransform="translate(2.63072 23.8253) scale(2.01651)">
<stop stop-color="#7F00FE"/>
<stop offset="1" stop-color="#450528" stop-opacity="0"/>
</radialGradient>
<linearGradient id="paint19_linear_30_3837" x1="2.61127" y1="23.6235" x2="2.61127" y2="25.6656" gradientUnits="userSpaceOnUse">
<stop offset="0.0055835" stop-color="#EB5757"/>
<stop offset="0.0873016" stop-color="#EB5757"/>
<stop offset="0.0874016" stop-color="#EA5757"/>
<stop offset="0.195583" stop-color="#D65767"/>
<stop offset="0.340584" stop-color="#B9567C"/>
<stop offset="0.490584" stop-color="#9B5591"/>
<stop offset="0.9709" stop-color="#3C53D7"/>
<stop offset="1" stop-color="#EB5757"/>
</linearGradient>
<radialGradient id="paint20_radial_30_3837" cx="0" cy="0" r="1" gradientUnits="userSpaceOnUse" gradientTransform="translate(2.23863 19.6858) scale(2.01651)">
<stop stop-color="#7F00FE"/>
<stop offset="1" stop-color="#450528" stop-opacity="0"/>
</radialGradient>
<linearGradient id="paint21_linear_30_3837" x1="2.21918" y1="19.484" x2="2.21918" y2="21.5262" gradientUnits="userSpaceOnUse">
<stop offset="0.0055835" stop-color="#EB5757"/>
<stop offset="0.0873016" stop-color="#EB5757"/>
<stop offset="0.0874016" stop-color="#EA5757"/>
<stop offset="0.195583" stop-color="#D65767"/>
<stop offset="0.340584" stop-color="#B9567C"/>
<stop offset="0.490584" stop-color="#9B5591"/>
<stop offset="0.9709" stop-color="#3C53D7"/>
<stop offset="1" stop-color="#EB5757"/>
</linearGradient>
<radialGradient id="paint22_radial_30_3837" cx="0" cy="0" r="1" gradientUnits="userSpaceOnUse" gradientTransform="translate(5.20152 10.2741) scale(2.01651)">
<stop stop-color="#7F00FE"/>
<stop offset="1" stop-color="#450528" stop-opacity="0"/>
</radialGradient>
<linearGradient id="paint23_linear_30_3837" x1="5.18207" y1="10.0722" x2="5.18207" y2="12.1144" gradientUnits="userSpaceOnUse">
<stop offset="0.0055835" stop-color="#EB5757"/>
<stop offset="0.0873016" stop-color="#EB5757"/>
<stop offset="0.0874016" stop-color="#EA5757"/>
<stop offset="0.195583" stop-color="#D65767"/>
<stop offset="0.340584" stop-color="#B9567C"/>
<stop offset="0.490584" stop-color="#9B5591"/>
<stop offset="0.9709" stop-color="#3C53D7"/>
<stop offset="1" stop-color="#EB5757"/>
</linearGradient>
<radialGradient id="paint24_radial_30_3837" cx="0" cy="0" r="1" gradientUnits="userSpaceOnUse" gradientTransform="translate(7.77232 7.00612) scale(2.01651)">
<stop stop-color="#7F00FE"/>
<stop offset="1" stop-color="#450528" stop-opacity="0"/>
</radialGradient>
<linearGradient id="paint25_linear_30_3837" x1="7.70942" y1="6.80427" x2="7.70942" y2="8.84643" gradientUnits="userSpaceOnUse">
<stop offset="0.0055835" stop-color="#EB5757"/>
<stop offset="0.0873016" stop-color="#EB5757"/>
<stop offset="0.0874016" stop-color="#EA5757"/>
<stop offset="0.195583" stop-color="#D65767"/>
<stop offset="0.340584" stop-color="#B9567C"/>
<stop offset="0.490584" stop-color="#9B5591"/>
<stop offset="0.9709" stop-color="#3C53D7"/>
<stop offset="1" stop-color="#EB5757"/>
</linearGradient>
<radialGradient id="paint26_radial_30_3837" cx="0" cy="0" r="1" gradientUnits="userSpaceOnUse" gradientTransform="translate(33.1319 5.78606) scale(2.01651)">
<stop stop-color="#7F00FE"/>
<stop offset="1" stop-color="#450528" stop-opacity="0"/>
</radialGradient>
<linearGradient id="paint27_linear_30_3837" x1="33.1125" y1="5.58424" x2="33.1125" y2="7.6264" gradientUnits="userSpaceOnUse">
<stop offset="0.0055835" stop-color="#EB5757"/>
<stop offset="0.0873016" stop-color="#EB5757"/>
<stop offset="0.0874016" stop-color="#EA5757"/>
<stop offset="0.195583" stop-color="#D65767"/>
<stop offset="0.340584" stop-color="#B9567C"/>
<stop offset="0.490584" stop-color="#9B5591"/>
<stop offset="0.9709" stop-color="#3C53D7"/>
<stop offset="1" stop-color="#EB5757"/>
</linearGradient>
</defs>
</svg>
