<svg width="345" height="335" viewBox="0 0 345 335" fill="none" xmlns="http://www.w3.org/2000/svg">
<g opacity="0.6">
<path opacity="0.6" d="M204.09 4.04175L113.646 18.9848L40.2413 66.8287L3.34253 166.973L47.7129 282.061L142.614 330.822L227.423 318.108L306.004 268.035L343.821 166.121L299.844 52.8032L204.09 4.04175Z" stroke="#0071BC" stroke-width="0.8601" stroke-miterlimit="10"/>
<path opacity="0.6" d="M142.614 330.822L110.565 298.314L107.026 193.779L132.521 88.7843L113.646 18.9846L39.3893 113.427L3.34253 166.973L37.6197 221.895L110.565 298.314L227.422 318.107L295.453 226.745L299.844 118.212V52.8031" stroke="#0071BC" stroke-width="0.8601" stroke-miterlimit="10"/>
<path opacity="0.6" d="M40.2412 66.8284L39.3892 113.427L37.6196 221.895L47.7127 282.06" stroke="#0071BC" stroke-width="0.8601" stroke-miterlimit="10"/>
<path opacity="0.6" d="M204.09 4.04175L223.425 41.3338L221.262 149.409L197.536 253.092L227.422 318.108" stroke="#0071BC" stroke-width="0.8601" stroke-miterlimit="10"/>
<path opacity="0.6" d="M113.318 18.9846L223.752 41.5302L299.844 52.8031" stroke="#0071BC" stroke-width="0.8601" stroke-miterlimit="10"/>
<path opacity="0.6" d="M39.5203 113.821L132.062 88.6535L223.752 41.5305L299.581 117.95L343.493 165.99L295.452 226.745" stroke="#0071BC" stroke-width="0.8601" stroke-miterlimit="10"/>
<path opacity="0.6" d="M39.1926 113.821L106.567 193.779L197.078 253.092" stroke="#0071BC" stroke-width="0.8601" stroke-miterlimit="10"/>
<path opacity="0.6" d="M306.004 268.428L295.452 226.286L220.803 148.95L132.521 88.3911" stroke="#0071BC" stroke-width="0.8601" stroke-miterlimit="10"/>
<path opacity="0.6" d="M299.844 118.67L221.262 149.408L106.567 193.779L37.1609 222.354" stroke="#0071BC" stroke-width="0.8601" stroke-miterlimit="10"/>
<path opacity="0.6" d="M47.7129 282.061L110.107 297.856L196.619 253.092L295.453 226.745" stroke="#0071BC" stroke-width="0.8601" stroke-miterlimit="10"/>
<g opacity="0.6">
<path opacity="0.6" d="M303.121 53.0653C303.121 54.966 301.613 56.4734 299.713 56.4734C297.812 56.4734 296.305 54.966 296.305 53.0653C296.305 51.1647 297.812 49.6573 299.713 49.6573C301.613 49.5917 303.121 51.1647 303.121 53.0653Z" fill="#0071BC"/>
<path opacity="0.6" d="M303.317 118.212C303.317 120.112 301.81 121.62 299.909 121.62C298.009 121.62 296.501 120.112 296.501 118.212C296.501 116.311 298.009 114.804 299.909 114.804C301.744 114.804 303.317 116.311 303.317 118.212Z" fill="#0071BC"/>
<path opacity="0.6" d="M224.67 149.409C224.67 151.309 223.162 152.817 221.262 152.817C219.361 152.817 217.854 151.309 217.854 149.409C217.854 147.508 219.361 146 221.262 146C223.162 146 224.67 147.508 224.67 149.409Z" fill="#0071BC"/>
<path opacity="0.6" d="M298.926 226.286C298.926 228.187 297.419 229.695 295.518 229.695C293.618 229.695 292.11 228.187 292.11 226.286C292.11 224.386 293.618 222.878 295.518 222.878C297.353 222.878 298.926 224.386 298.926 226.286Z" fill="#0071BC"/>
<path opacity="0.6" d="M309.478 268.035C309.478 269.936 307.971 271.443 306.07 271.443C304.169 271.443 302.662 269.936 302.662 268.035C302.662 266.135 304.169 264.627 306.07 264.627C307.905 264.562 309.478 266.135 309.478 268.035Z" fill="#0071BC"/>
<path opacity="0.6" d="M230.831 317.845C230.831 319.746 229.323 321.253 227.422 321.253C225.522 321.253 224.014 319.68 224.014 317.845C224.014 315.944 225.522 314.437 227.422 314.437C229.258 314.437 230.831 315.944 230.831 317.845Z" fill="#0071BC"/>
<path opacity="0.6" d="M200.944 252.633C200.944 254.534 199.437 256.041 197.536 256.041C195.636 256.041 194.128 254.534 194.128 252.633C194.128 250.733 195.636 249.225 197.536 249.225C199.437 249.225 200.944 250.733 200.944 252.633Z" fill="#0071BC"/>
<path opacity="0.6" d="M113.973 298.118C113.973 300.018 112.466 301.526 110.565 301.526C108.665 301.526 107.157 299.953 107.157 298.118C107.157 296.217 108.665 294.71 110.565 294.71C112.466 294.644 113.973 296.217 113.973 298.118Z" fill="#0071BC"/>
<path opacity="0.6" d="M145.17 330.626C145.17 332.526 143.663 334.034 141.762 334.034C139.861 334.034 138.354 332.461 138.354 330.626C138.354 328.725 139.861 327.218 141.762 327.218C143.663 327.152 145.17 328.725 145.17 330.626Z" fill="#0071BC"/>
<path opacity="0.6" d="M50.531 282.519C50.531 284.42 49.0236 285.927 47.1229 285.927C45.2223 285.927 43.7148 284.355 43.7148 282.519C43.7148 280.619 45.2223 279.111 47.1229 279.111C48.958 279.046 50.531 280.619 50.531 282.519Z" fill="#0071BC"/>
<path opacity="0.6" d="M41.0935 222.092C41.0935 223.993 39.5861 225.5 37.6854 225.5C35.7848 225.5 34.2773 223.993 34.2773 222.092C34.2773 220.191 35.7848 218.684 37.6854 218.684C39.5205 218.684 41.0935 220.191 41.0935 222.092Z" fill="#0071BC"/>
<path opacity="0.6" d="M6.81612 166.973C6.81612 168.874 5.30871 170.381 3.40806 170.381C1.50741 170.381 0 168.808 0 166.973C0 165.072 1.50741 163.565 3.40806 163.565C5.24317 163.565 6.81612 165.072 6.81612 166.973Z" fill="#0071BC"/>
<path opacity="0.6" d="M43.0595 113.82C43.0595 115.721 41.5521 117.228 39.6515 117.228C37.7508 117.228 36.2434 115.721 36.2434 113.82C36.2434 111.92 37.7508 110.412 39.6515 110.412C41.4866 110.412 43.0595 111.92 43.0595 113.82Z" fill="#0071BC"/>
<path opacity="0.6" d="M43.4528 66.8285C43.4528 68.7291 41.9454 70.2365 40.0448 70.2365C38.1441 70.2365 36.6367 68.7291 36.6367 66.8285C36.6367 64.9278 38.1441 63.4204 40.0448 63.4204C41.9454 63.4204 43.4528 64.9278 43.4528 66.8285Z" fill="#0071BC"/>
<path opacity="0.6" d="M117.054 18.9847C117.054 20.8854 115.546 22.3928 113.646 22.3928C111.745 22.3928 110.238 20.8854 110.238 18.9847C110.238 17.0841 111.745 15.5767 113.646 15.5767C115.546 15.5111 117.054 17.0841 117.054 18.9847Z" fill="#0071BC"/>
<path opacity="0.6" d="M135.929 88.5878C135.929 90.4884 134.422 91.9958 132.521 91.9958C130.62 91.9958 129.113 90.4884 129.113 88.5878C129.113 86.6871 130.62 85.1797 132.521 85.1797C134.422 85.1142 135.929 86.6871 135.929 88.5878Z" fill="#0071BC"/>
<path opacity="0.6" d="M110.5 193.713C110.5 195.614 108.992 197.121 107.092 197.121C105.191 197.121 103.684 195.614 103.684 193.713C103.684 191.813 105.191 190.305 107.092 190.305C108.927 190.24 110.5 191.813 110.5 193.713Z" fill="#0071BC"/>
<path opacity="0.6" d="M227.357 41.8578C227.357 43.7584 225.849 45.2659 223.949 45.2659C222.048 45.2659 220.541 43.7584 220.541 41.8578C220.541 39.9571 222.048 38.4497 223.949 38.4497C225.849 38.3842 227.357 39.9571 227.357 41.8578Z" fill="#0071BC"/>
<path opacity="0.6" d="M207.564 4.04163C207.564 5.94228 206.057 7.44969 204.156 7.44969C202.255 7.44969 200.748 5.94228 200.748 4.04163C200.748 2.14098 202.255 0.633569 204.156 0.633569C205.991 0.568029 207.564 2.14098 207.564 4.04163Z" fill="#0071BC"/>
</g>
</g>
</svg>
